<svg width="100" height="64" viewBox="0 0 100 64" fill="none" xmlns="http://www.w3.org/2000/svg">
<rect x="0.5" y="0.5" width="99" height="63" rx="7.5" fill="white"/>
<rect x="0.5" y="0.5" width="99" height="63" rx="7.5" stroke="#F1F1F1"/>
<g clip-path="url(#clip0_3492_70676)">
<path d="M50.6946 18.7378C50.6289 18.7378 50.5633 18.7237 50.4977 18.6909L46.9727 16.994C46.8948 16.9571 46.8291 16.8987 46.7834 16.8255C46.7377 16.7524 46.7139 16.6678 46.7149 16.5815C46.7149 16.4081 46.8133 16.2487 46.9727 16.1737L49.6867 14.8706C49.7805 14.8237 49.8836 14.8144 49.9867 14.8378L54.8758 15.9722C55.1196 16.0284 55.2742 16.2722 55.218 16.5159C55.1617 16.7597 54.918 16.9144 54.6742 16.8581L49.9399 15.7612L48.2242 16.5862L50.8961 17.8706C51.1211 17.9784 51.2196 18.2503 51.1071 18.4753C51.07 18.5535 51.0116 18.6195 50.9386 18.666C50.8657 18.7124 50.7811 18.7373 50.6946 18.7378ZM48.5805 28.1972C48.4586 28.1972 48.3367 28.1456 48.2524 28.0565C48.1878 27.9881 48.1459 27.9014 48.1325 27.8083C48.119 27.7151 48.1347 27.6201 48.1774 27.5362L51.6789 20.8144C51.7258 20.7206 51.8102 20.6456 51.9039 20.6034L56.4414 18.6909C56.5312 18.6546 56.6301 18.6473 56.7242 18.67C56.8184 18.6927 56.9031 18.7442 56.9664 18.8175C57.093 18.9675 57.1071 19.1878 57.0039 19.3565L52.5133 26.3831C52.4653 26.4571 52.3969 26.5157 52.3164 26.5519L48.768 28.1597C48.7071 28.1831 48.6414 28.1972 48.5805 28.1972ZM52.4055 21.3722L49.5883 26.7816L51.8149 25.7737L55.4477 20.0925L52.4055 21.3722ZM59.8211 16.844C59.7193 16.8444 59.6204 16.8106 59.54 16.7482C59.4597 16.6858 59.4025 16.5982 59.3777 16.4995C59.3529 16.4008 59.3619 16.2966 59.4031 16.2036C59.4444 16.1106 59.5157 16.0341 59.6055 15.9862L62.1461 14.6456C62.3664 14.5284 62.643 14.6128 62.7602 14.8331C62.8774 15.0534 62.793 15.33 62.5727 15.4472L60.0321 16.7878C59.9677 16.8243 59.8951 16.8437 59.8211 16.844Z" fill="#41479B"/>
<path d="M42.1305 25.3141C41.8458 25.3161 41.5645 25.2524 41.3084 25.128C41.0523 25.0037 40.8284 24.8219 40.6539 24.5969C40.2696 24.1047 40.1571 23.4719 40.3633 22.9469L39.2571 22.0656C39.243 22.0563 39.2336 22.0469 39.2196 22.0375L37.5977 20.7438C37.4758 20.6453 37.4102 20.4953 37.4289 20.3406C37.4477 20.1859 37.5414 20.05 37.6821 19.9797L39.8899 18.8922C40.0211 18.8266 40.1758 18.8313 40.3071 18.9016L43.7149 20.7484C43.8602 20.8234 44.0336 20.8328 44.1789 20.7625L56.5024 15.1281C58.6586 14.1531 62.0805 13.8531 64.5039 15.5031C64.8086 15.7094 65.0008 16.0563 65.0055 16.4313C65.0149 16.8109 64.8414 17.1672 64.5368 17.3969C63.1399 18.4375 59.8586 20.2656 55.1993 22.0047C54.9649 22.0938 54.7024 21.9719 54.6133 21.7375C54.5243 21.5031 54.6461 21.2406 54.8805 21.1516C59.4508 19.4453 62.6477 17.6688 63.993 16.6656C64.0868 16.5953 64.0961 16.4922 64.0961 16.45C64.0966 16.4112 64.0874 16.3729 64.0694 16.3386C64.0514 16.3042 64.0251 16.2749 63.993 16.2531C61.9539 14.8656 58.8696 15.0531 56.8774 15.9531L44.5539 21.5875C44.1508 21.775 43.6727 21.7609 43.2743 21.5453L40.0727 19.8109L38.718 20.4766L39.7446 21.2969C39.7586 21.3063 39.768 21.3156 39.7821 21.325L40.9586 22.2625C41.2586 22.4922 41.3618 22.9 41.2071 23.275C41.118 23.5 41.1789 23.8 41.3664 24.0391C41.4696 24.1703 41.7602 24.4609 42.2711 24.3953C45.0836 24.0156 48.0086 23.3641 50.9571 22.4688C51.0143 22.4512 51.0745 22.4451 51.1341 22.451C51.1937 22.4568 51.2515 22.4744 51.3043 22.5027C51.357 22.5311 51.4036 22.5696 51.4414 22.616C51.4791 22.6625 51.5073 22.716 51.5243 22.7734C51.5418 22.8307 51.5479 22.8908 51.542 22.9504C51.5362 23.01 51.5186 23.0679 51.4903 23.1206C51.462 23.1734 51.4234 23.22 51.377 23.2577C51.3305 23.2955 51.277 23.3237 51.2196 23.3406C48.2243 24.25 45.2524 24.9063 42.3883 25.2953C42.3039 25.3094 42.2196 25.3141 42.1305 25.3141Z" fill="#41479B"/>
<path d="M39.5052 22.1358C39.401 22.1352 39.3002 22.0989 39.2195 22.0331C39.1388 21.9672 39.0831 21.8756 39.0617 21.7736C39.0403 21.6717 39.0546 21.5655 39.102 21.4727C39.1494 21.38 39.2272 21.3062 39.3224 21.2639L41.7599 19.9279C41.8122 19.899 41.8697 19.8807 41.9291 19.874C41.9885 19.8673 42.0487 19.8723 42.1061 19.8889C42.1636 19.9054 42.2172 19.9331 42.264 19.9704C42.3107 20.0076 42.3497 20.0537 42.3786 20.1061C42.4076 20.1584 42.4259 20.2159 42.4326 20.2753C42.4393 20.3347 42.4343 20.3949 42.4177 20.4523C42.4012 20.5098 42.3735 20.5634 42.3362 20.6102C42.2989 20.6569 42.2528 20.6959 42.2005 20.7248L39.7302 22.0795C39.6552 22.117 39.5802 22.1358 39.5052 22.1358ZM37.5271 27.4983C37.3583 27.4983 37.1943 27.4045 37.1146 27.2404C37.0887 27.1866 37.0737 27.1282 37.0706 27.0686C37.0674 27.009 37.0761 26.9493 37.0961 26.8931C37.1162 26.8368 37.1472 26.7851 37.1874 26.741C37.2276 26.6968 37.2761 26.661 37.3302 26.6358L39.4396 25.6233C39.4931 25.5977 39.5512 25.583 39.6104 25.5799C39.6697 25.5768 39.729 25.5853 39.7849 25.6052C39.8408 25.625 39.8923 25.6556 39.9364 25.6953C39.9805 25.735 40.0164 25.783 40.0419 25.8365C40.0675 25.8901 40.0822 25.9482 40.0853 26.0074C40.0884 26.0667 40.0798 26.126 40.06 26.1819C40.0402 26.2378 40.0096 26.2893 39.9699 26.3334C39.9302 26.3775 39.8822 26.4133 39.8286 26.4389L37.7193 27.4514C37.6583 27.4842 37.5927 27.4983 37.5271 27.4983ZM35.4552 28.4873C35.2864 28.4873 35.1224 28.3936 35.0427 28.2295C35.0168 28.1757 35.0018 28.1173 34.9987 28.0577C34.9955 27.9981 35.0042 27.9384 35.0243 27.8822C35.0443 27.8259 35.0753 27.7742 35.1155 27.73C35.1557 27.6859 35.2042 27.6501 35.2583 27.6248L35.9943 27.2733C36.0478 27.2477 36.1059 27.233 36.1651 27.2299C36.2244 27.2268 36.2837 27.2353 36.3396 27.2552C36.3955 27.275 36.447 27.3056 36.4911 27.3453C36.5352 27.385 36.5711 27.433 36.5966 27.4865C36.6221 27.5401 36.6369 27.5982 36.64 27.6574C36.6431 27.7167 36.6345 27.776 36.6147 27.8319C36.5949 27.8878 36.5643 27.9393 36.5246 27.9834C36.4849 28.0275 36.4369 28.0633 36.3833 28.0889L35.6474 28.4404C35.5864 28.4733 35.5208 28.4873 35.4552 28.4873ZM40.0958 28.3326C39.9271 28.3326 39.763 28.2389 39.6833 28.0748C39.6574 28.021 39.6425 27.9626 39.6393 27.903C39.6361 27.8434 39.6448 27.7837 39.6649 27.7275C39.685 27.6712 39.716 27.6195 39.7561 27.5754C39.7963 27.5312 39.8449 27.4954 39.8989 27.4701L42.0083 26.4576C42.1165 26.406 42.2407 26.3995 42.3537 26.4395C42.4666 26.4795 42.5591 26.5628 42.6107 26.6709C42.6623 26.7791 42.6688 26.9033 42.6288 27.0163C42.5888 27.1292 42.5055 27.2217 42.3974 27.2733L40.288 28.2858C40.2271 28.3186 40.1614 28.3326 40.0958 28.3326ZM38.0239 29.3264C37.8552 29.3264 37.6911 29.2326 37.6114 29.0686C37.5856 29.0148 37.5706 28.9564 37.5674 28.8967C37.5643 28.8371 37.573 28.7775 37.593 28.7212C37.6131 28.665 37.6441 28.6133 37.6843 28.5691C37.7244 28.5249 37.773 28.4892 37.8271 28.4639L38.5911 28.0936C38.6447 28.068 38.7027 28.0533 38.762 28.0502C38.8213 28.0471 38.8805 28.0557 38.9365 28.0755C38.9924 28.0953 39.0439 28.1259 39.088 28.1656C39.1321 28.2053 39.1679 28.2533 39.1935 28.3069C39.219 28.3604 39.2338 28.4185 39.2369 28.4777C39.24 28.537 39.2314 28.5963 39.2116 28.6522C39.1918 28.7081 39.1612 28.7596 39.1214 28.8037C39.0817 28.8478 39.0337 28.8837 38.9802 28.9092L38.2161 29.2748C38.1599 29.3123 38.0896 29.3264 38.0239 29.3264ZM43.2177 28.6748C43.1145 28.6759 43.0141 28.6417 42.9329 28.578C42.8517 28.5143 42.7947 28.4248 42.7712 28.3244C42.7478 28.2239 42.7592 28.1184 42.8038 28.0253C42.8483 27.9322 42.9232 27.8571 43.0161 27.8123L45.1255 26.7998C45.3505 26.692 45.6224 26.7858 45.7302 27.0108C45.838 27.2358 45.7443 27.5076 45.5193 27.6154L43.4099 28.6279C43.3489 28.6608 43.2833 28.6748 43.2177 28.6748ZM41.1458 29.6686C40.9771 29.6686 40.813 29.5748 40.738 29.4108C40.686 29.3026 40.6791 29.1782 40.7186 29.0649C40.7581 28.9515 40.841 28.8585 40.9489 28.8061L41.6614 28.4639C41.8864 28.3561 42.1583 28.4498 42.2661 28.6748C42.3739 28.8998 42.2802 29.1717 42.0552 29.2795L41.3427 29.6217C41.2771 29.6545 41.2114 29.6686 41.1458 29.6686Z" fill="#41479B"/>
</g>
<path d="M21.1394 50H20.0314L23.236 41.2727H24.3269L27.5314 50H26.4235L23.8155 42.6534H23.7473L21.1394 50ZM21.5485 46.5909H26.0144V47.5284H21.5485V46.5909ZM31.4988 50.1364C30.8681 50.1364 30.324 49.9972 29.8667 49.7188C29.4121 49.4375 29.0613 49.0455 28.8141 48.5426C28.5698 48.0369 28.4476 47.4489 28.4476 46.7784C28.4476 46.108 28.5698 45.517 28.8141 45.0057C29.0613 44.4915 29.405 44.0909 29.8453 43.804C30.2885 43.5142 30.8056 43.3693 31.3965 43.3693C31.7374 43.3693 32.074 43.4261 32.4064 43.5398C32.7388 43.6534 33.0414 43.8381 33.3141 44.0938C33.5868 44.3466 33.8042 44.6818 33.9661 45.0994C34.128 45.517 34.209 46.0312 34.209 46.642V47.0682H29.1635V46.1989H33.1863C33.1863 45.8295 33.1124 45.5 32.9647 45.2102C32.8198 44.9205 32.6124 44.6918 32.3425 44.5241C32.0755 44.3565 31.7601 44.2727 31.3965 44.2727C30.9959 44.2727 30.6493 44.3722 30.3567 44.571C30.0669 44.767 29.8439 45.0227 29.6877 45.3381C29.5314 45.6534 29.4533 45.9915 29.4533 46.3523V46.9318C29.4533 47.4261 29.5385 47.8452 29.709 48.1889C29.8823 48.5298 30.1223 48.7898 30.4292 48.9688C30.736 49.1449 31.0925 49.233 31.4988 49.233C31.763 49.233 32.0016 49.196 32.2147 49.1222C32.4306 49.0455 32.6167 48.9318 32.7729 48.7812C32.9292 48.6278 33.0499 48.4375 33.1351 48.2102L34.1067 48.483C34.0044 48.8125 33.8326 49.1023 33.5911 49.3523C33.3496 49.5994 33.0513 49.7926 32.6962 49.9318C32.3411 50.0682 31.9419 50.1364 31.4988 50.1364ZM35.7388 50V43.4545H36.7104V44.4432H36.7786C36.8979 44.1193 37.1138 43.8565 37.4263 43.6548C37.7388 43.4531 38.0911 43.3523 38.4831 43.3523C38.557 43.3523 38.6493 43.3537 38.7601 43.3565C38.8709 43.3594 38.9547 43.3636 39.0115 43.3693V44.392C38.9775 44.3835 38.8993 44.3707 38.7772 44.3537C38.6578 44.3338 38.5314 44.3239 38.3979 44.3239C38.0797 44.3239 37.7956 44.3906 37.5456 44.5241C37.2985 44.6548 37.1025 44.8366 36.9576 45.0696C36.8155 45.2997 36.7445 45.5625 36.7445 45.858V50H35.7388ZM42.6635 50.1364C42.0726 50.1364 41.5542 49.9957 41.1081 49.7145C40.665 49.4332 40.3184 49.0398 40.0684 48.5341C39.8212 48.0284 39.6976 47.4375 39.6976 46.7614C39.6976 46.0795 39.8212 45.4844 40.0684 44.9759C40.3184 44.4673 40.665 44.0724 41.1081 43.7912C41.5542 43.5099 42.0726 43.3693 42.6635 43.3693C43.2544 43.3693 43.7715 43.5099 44.2147 43.7912C44.6607 44.0724 45.0073 44.4673 45.2544 44.9759C45.5044 45.4844 45.6294 46.0795 45.6294 46.7614C45.6294 47.4375 45.5044 48.0284 45.2544 48.5341C45.0073 49.0398 44.6607 49.4332 44.2147 49.7145C43.7715 49.9957 43.2544 50.1364 42.6635 50.1364ZM42.6635 49.233C43.1124 49.233 43.4817 49.1179 43.7715 48.8878C44.0613 48.6577 44.2757 48.3551 44.415 47.9801C44.5542 47.6051 44.6238 47.1989 44.6238 46.7614C44.6238 46.3239 44.5542 45.9162 44.415 45.5384C44.2757 45.1605 44.0613 44.8551 43.7715 44.6222C43.4817 44.3892 43.1124 44.2727 42.6635 44.2727C42.2147 44.2727 41.8453 44.3892 41.5556 44.6222C41.2658 44.8551 41.0513 45.1605 40.9121 45.5384C40.7729 45.9162 40.7033 46.3239 40.7033 46.7614C40.7033 47.1989 40.7729 47.6051 40.9121 47.9801C41.0513 48.3551 41.2658 48.6577 41.5556 48.8878C41.8453 49.1179 42.2147 49.233 42.6635 49.233ZM51.801 44.9205L50.8975 45.1761C50.8407 45.0256 50.7569 44.8793 50.6461 44.7372C50.5382 44.5923 50.3904 44.473 50.2029 44.3793C50.0154 44.2855 49.7754 44.2386 49.4828 44.2386C49.0822 44.2386 48.7484 44.331 48.4814 44.5156C48.2172 44.6974 48.085 44.929 48.085 45.2102C48.085 45.4602 48.176 45.6577 48.3578 45.8026C48.5396 45.9474 48.8237 46.0682 49.21 46.1648L50.1816 46.4034C50.7669 46.5455 51.2029 46.7628 51.4899 47.0554C51.7768 47.3452 51.9203 47.7187 51.9203 48.1761C51.9203 48.5511 51.8123 48.8864 51.5964 49.1818C51.3833 49.4773 51.085 49.7102 50.7015 49.8807C50.318 50.0511 49.872 50.1364 49.3635 50.1364C48.6958 50.1364 48.1433 49.9915 47.7058 49.7017C47.2683 49.4119 46.9913 48.9886 46.8748 48.4318L47.8294 48.1932C47.9203 48.5455 48.0922 48.8097 48.345 48.9858C48.6007 49.1619 48.9345 49.25 49.3464 49.25C49.8152 49.25 50.1873 49.1506 50.4629 48.9517C50.7413 48.75 50.8805 48.5085 50.8805 48.2273C50.8805 48 50.801 47.8097 50.6419 47.6562C50.4828 47.5 50.2385 47.3835 49.9089 47.3068L48.818 47.0511C48.2186 46.9091 47.7782 46.6889 47.497 46.3906C47.2186 46.0895 47.0794 45.7131 47.0794 45.2614C47.0794 44.892 47.1831 44.5653 47.3904 44.2812C47.6007 43.9972 47.8862 43.7741 48.247 43.6122C48.6106 43.4503 49.0225 43.3693 49.4828 43.3693C50.1305 43.3693 50.639 43.5114 51.0083 43.7955C51.3805 44.0795 51.6447 44.4545 51.801 44.9205ZM53.4341 52.4545V43.4545H54.4057V44.4943H54.525C54.5989 44.3807 54.7012 44.2358 54.8319 44.0597C54.9654 43.8807 55.1557 43.7216 55.4029 43.5824C55.6529 43.4403 55.9909 43.3693 56.4171 43.3693C56.9682 43.3693 57.454 43.5071 57.8745 43.7827C58.2949 44.0582 58.623 44.4489 58.8588 44.9545C59.0946 45.4602 59.2125 46.0568 59.2125 46.7443C59.2125 47.4375 59.0946 48.0384 58.8588 48.5469C58.623 49.0526 58.2963 49.4446 57.8787 49.723C57.4611 49.9986 56.9796 50.1364 56.4341 50.1364C56.0137 50.1364 55.677 50.0668 55.4242 49.9276C55.1713 49.7855 54.9767 49.625 54.8404 49.446C54.704 49.2642 54.5989 49.1136 54.525 48.9943H54.4398V52.4545H53.4341ZM54.4228 46.7273C54.4228 47.2216 54.4952 47.6577 54.6401 48.0355C54.785 48.4105 54.9966 48.7045 55.275 48.9176C55.5534 49.1278 55.8944 49.233 56.2978 49.233C56.7182 49.233 57.0691 49.1222 57.3503 48.9006C57.6344 48.6761 57.8475 48.375 57.9895 47.9972C58.1344 47.6165 58.2069 47.1932 58.2069 46.7273C58.2069 46.267 58.1358 45.8523 57.9938 45.483C57.8546 45.1108 57.6429 44.8168 57.3588 44.6009C57.0776 44.3821 56.7239 44.2727 56.2978 44.2727C55.8887 44.2727 55.5449 44.3764 55.2665 44.5838C54.9881 44.7884 54.7779 45.0753 54.6358 45.4446C54.4938 45.8111 54.4228 46.2386 54.4228 46.7273ZM62.6728 50.1534C62.258 50.1534 61.8816 50.0753 61.5435 49.919C61.2054 49.7599 60.937 49.5312 60.7381 49.233C60.5392 48.9318 60.4398 48.5682 60.4398 48.142C60.4398 47.767 60.5137 47.4631 60.6614 47.2301C60.8091 46.9943 61.0066 46.8097 61.2537 46.6761C61.5009 46.5426 61.7736 46.4432 62.0719 46.3778C62.373 46.3097 62.6756 46.2557 62.9796 46.2159C63.3773 46.1648 63.6998 46.1264 63.9469 46.1009C64.1969 46.0724 64.3787 46.0256 64.4924 45.9602C64.6088 45.8949 64.6671 45.7812 64.6671 45.6193V45.5852C64.6671 45.1648 64.552 44.8381 64.3219 44.6051C64.0946 44.3722 63.7495 44.2557 63.2864 44.2557C62.8063 44.2557 62.4299 44.3608 62.1571 44.571C61.8844 44.7812 61.6926 45.0057 61.5819 45.2443L60.6273 44.9034C60.7978 44.5057 61.025 44.196 61.3091 43.9744C61.5961 43.75 61.9086 43.5937 62.2466 43.5057C62.5875 43.4148 62.9228 43.3693 63.2523 43.3693C63.4625 43.3693 63.704 43.3949 63.9767 43.446C64.2523 43.4943 64.5179 43.5952 64.7736 43.7486C65.0321 43.902 65.2466 44.1335 65.4171 44.4432C65.5875 44.7528 65.6728 45.1676 65.6728 45.6875V50H64.6671V49.1136H64.6159C64.5478 49.2557 64.4341 49.4077 64.275 49.5696C64.1159 49.7315 63.9043 49.8693 63.6401 49.983C63.3759 50.0966 63.0534 50.1534 62.6728 50.1534ZM62.8262 49.25C63.2239 49.25 63.5591 49.1719 63.8319 49.0156C64.1074 48.8594 64.3148 48.6577 64.454 48.4105C64.5961 48.1634 64.6671 47.9034 64.6671 47.6307V46.7102C64.6245 46.7614 64.5307 46.8082 64.3858 46.8509C64.2438 46.8906 64.079 46.9261 63.8915 46.9574C63.7069 46.9858 63.5265 47.0114 63.3503 47.0341C63.177 47.054 63.0364 47.071 62.9284 47.0852C62.6671 47.1193 62.4228 47.1747 62.1955 47.2514C61.9711 47.3253 61.7892 47.4375 61.65 47.5881C61.5137 47.7358 61.4455 47.9375 61.4455 48.1932C61.4455 48.5426 61.5748 48.8068 61.8333 48.9858C62.0946 49.1619 62.4256 49.25 62.8262 49.25ZM70.1674 50.1364C69.5538 50.1364 69.0254 49.9915 68.5822 49.7017C68.139 49.4119 67.7981 49.0128 67.5595 48.5043C67.3208 47.9957 67.2015 47.4148 67.2015 46.7614C67.2015 46.0966 67.3237 45.5099 67.568 45.0014C67.8152 44.4901 68.1589 44.0909 68.5993 43.804C69.0424 43.5142 69.5595 43.3693 70.1504 43.3693C70.6106 43.3693 71.0254 43.4545 71.3947 43.625C71.764 43.7955 72.0666 44.0341 72.3024 44.3409C72.5382 44.6477 72.6845 45.0057 72.7413 45.4148H71.7356C71.6589 45.1165 71.4885 44.8523 71.2243 44.6222C70.9629 44.3892 70.6106 44.2727 70.1674 44.2727C69.7754 44.2727 69.4316 44.375 69.1362 44.5795C68.8436 44.7812 68.6149 45.0668 68.4501 45.4361C68.2882 45.8026 68.2072 46.233 68.2072 46.7273C68.2072 47.233 68.2868 47.6733 68.4458 48.0483C68.6078 48.4233 68.835 48.7145 69.1277 48.9219C69.4231 49.1293 69.7697 49.233 70.1674 49.233C70.4288 49.233 70.666 49.1875 70.8791 49.0966C71.0922 49.0057 71.2725 48.875 71.4203 48.7045C71.568 48.5341 71.6731 48.3295 71.7356 48.0909H72.7413C72.6845 48.4773 72.5439 48.8253 72.3194 49.1349C72.0978 49.4418 71.8038 49.6861 71.4373 49.8679C71.0737 50.0469 70.6504 50.1364 70.1674 50.1364ZM76.9558 50.1364C76.3251 50.1364 75.7811 49.9972 75.3237 49.7188C74.8691 49.4375 74.5183 49.0455 74.2711 48.5426C74.0268 48.0369 73.9047 47.4489 73.9047 46.7784C73.9047 46.108 74.0268 45.517 74.2711 45.0057C74.5183 44.4915 74.862 44.0909 75.3024 43.804C75.7456 43.5142 76.2626 43.3693 76.8535 43.3693C77.1944 43.3693 77.5311 43.4261 77.8635 43.5398C78.1958 43.6534 78.4984 43.8381 78.7711 44.0938C79.0439 44.3466 79.2612 44.6818 79.4231 45.0994C79.585 45.517 79.666 46.0312 79.666 46.642V47.0682H74.6206V46.1989H78.6433C78.6433 45.8295 78.5694 45.5 78.4217 45.2102C78.2768 44.9205 78.0694 44.6918 77.7995 44.5241C77.5325 44.3565 77.2172 44.2727 76.8535 44.2727C76.4529 44.2727 76.1064 44.3722 75.8137 44.571C75.524 44.767 75.301 45.0227 75.1447 45.3381C74.9885 45.6534 74.9103 45.9915 74.9103 46.3523V46.9318C74.9103 47.4261 74.9956 47.8452 75.166 48.1889C75.3393 48.5298 75.5794 48.7898 75.8862 48.9688C76.193 49.1449 76.5495 49.233 76.9558 49.233C77.22 49.233 77.4586 49.196 77.6717 49.1222C77.8876 49.0455 78.0737 48.9318 78.2299 48.7812C78.3862 48.6278 78.5069 48.4375 78.5922 48.2102L79.5637 48.483C79.4615 48.8125 79.2896 49.1023 79.0481 49.3523C78.8066 49.5994 78.5083 49.7926 78.1532 49.9318C77.7981 50.0682 77.399 50.1364 76.9558 50.1364Z" fill="#1A1B1F"/>
<defs>
<clipPath id="clip0_3492_70676">
<rect width="30" height="30" fill="white" transform="translate(35 7)"/>
</clipPath>
</defs>
</svg>
