<svg width="100" height="64" viewBox="0 0 100 64" fill="none" xmlns="http://www.w3.org/2000/svg">
<rect x="0.5" y="0.5" width="99" height="63" rx="7.5" fill="white"/>
<rect x="0.5" y="0.5" width="99" height="63" rx="7.5" stroke="#F1F1F1"/>
<g clip-path="url(#clip0_3492_70683)">
<path d="M43.0217 36.0626C42.8987 36.0621 42.7809 36.0133 42.6936 35.9267L36.0781 29.3642C36.0342 29.3206 35.9993 29.2688 35.9755 29.2117C35.9517 29.1545 35.9395 29.0933 35.9395 29.0314C35.9395 28.9695 35.9517 28.9082 35.9755 28.8511C35.9993 28.794 36.0342 28.7422 36.0781 28.6986L38.4406 26.3548C38.5284 26.2677 38.6471 26.2188 38.7708 26.2188C38.8946 26.2188 39.0133 26.2677 39.1011 26.3548L45.7161 32.9173C45.76 32.9609 45.7949 33.0127 45.8187 33.0699C45.8425 33.127 45.8547 33.1883 45.8547 33.2501C45.8547 33.312 45.8425 33.3733 45.8187 33.4304C45.7949 33.4875 45.76 33.5394 45.7161 33.583L43.3536 35.9267C43.2653 36.0142 43.146 36.0631 43.0217 36.0626ZM37.0719 29.0314L43.0217 34.9339L44.7186 33.2501L38.7692 27.3476L37.0719 29.0314Z" fill="#41479B"/>
<path d="M39.7148 28.0938C39.6221 28.0934 39.5316 28.0655 39.4547 28.0137C39.3779 27.9619 39.3181 27.8884 39.283 27.8026C39.2479 27.7168 39.239 27.6225 39.2574 27.5317C39.2759 27.4408 39.3209 27.3575 39.3867 27.2922L41.9784 24.7211C42.5488 24.1533 43.2255 23.7035 43.9698 23.3975C44.7141 23.0915 45.5115 22.9352 46.3162 22.9375H55.3083C55.8055 22.9375 56.2825 23.1351 56.6341 23.4867C56.9857 23.8383 57.1833 24.3152 57.1833 24.8125C57.1833 25.3098 56.9857 25.7867 56.6341 26.1384C56.2825 26.49 55.8055 26.6875 55.3083 26.6875H48.2194C48.095 26.6875 47.9758 26.6381 47.8879 26.5502C47.8 26.4623 47.7506 26.3431 47.7506 26.2188C47.7506 26.0945 47.8 25.9752 47.8879 25.8873C47.9758 25.7994 48.095 25.75 48.2194 25.75H55.3083C55.5569 25.75 55.7954 25.6513 55.9712 25.4754C56.147 25.2996 56.2458 25.0612 56.2458 24.8125C56.2458 24.5639 56.147 24.3254 55.9712 24.1496C55.7954 23.9738 55.5569 23.875 55.3083 23.875H46.3162C45.6336 23.8728 44.9573 24.0051 44.3259 24.2645C43.6945 24.5239 43.1204 24.9053 42.6366 25.3867L40.0448 27.9578C39.9571 28.0449 39.8385 28.0938 39.7148 28.0938Z" fill="#41479B"/>
<path d="M44.4394 32.7813C44.3467 32.7809 44.2562 32.753 44.1794 32.7012C44.1025 32.6494 44.0427 32.5759 44.0076 32.4901C43.9725 32.4043 43.9636 32.3101 43.982 32.2192C44.0005 32.1284 44.0455 32.045 44.1113 31.9797L45.5293 30.5735C45.6166 30.4869 45.7344 30.4381 45.8574 30.4376H53.3504C53.909 30.4395 54.4625 30.3312 54.9792 30.119C55.4959 29.9067 55.9657 29.5946 56.3616 29.2005L62.7746 22.8391C62.8857 22.7294 62.9738 22.5988 63.034 22.4547C63.0942 22.3107 63.1252 22.1562 63.1252 22.0001C63.1252 21.844 63.0942 21.6894 63.034 21.5454C62.9738 21.4013 62.8857 21.2707 62.7746 21.161C62.5478 20.9372 62.242 20.8118 61.9233 20.8118C61.6047 20.8118 61.2989 20.9372 61.0721 21.161L57.0554 25.1454C57.0119 25.1899 56.9601 25.2254 56.9028 25.2497C56.8455 25.274 56.784 25.2866 56.7217 25.2869C56.6595 25.2871 56.5979 25.275 56.5404 25.2512C56.4829 25.2274 56.4307 25.1923 56.3869 25.1482C56.3431 25.104 56.3085 25.0515 56.2852 24.9938C56.2619 24.9361 56.2503 24.8744 56.2511 24.8122C56.2518 24.75 56.265 24.6885 56.2898 24.6314C56.3146 24.5744 56.3505 24.5228 56.3954 24.4797L60.4116 20.4954C60.8144 20.0979 61.3575 19.875 61.9233 19.875C62.4892 19.875 63.0323 20.0979 63.4351 20.4954C63.634 20.6922 63.7919 20.9266 63.8997 21.1848C64.0075 21.4431 64.063 21.7202 64.063 22.0001C64.063 22.2799 64.0075 22.557 63.8997 22.8153C63.7919 23.0736 63.634 23.3079 63.4351 23.5047L57.0216 29.8661C56.5389 30.3466 55.9662 30.7272 55.3362 30.9861C54.7063 31.2451 54.0315 31.3772 53.3504 31.3751H46.0501L44.7694 32.6454C44.6817 32.7324 44.5631 32.7813 44.4394 32.7813ZM54.3268 19.0624C53.6983 19.0785 53.078 18.917 52.5371 18.5965C51.2307 17.7255 50.1212 15.8997 50.7718 13.9483C51.4641 11.8718 52.7204 11.3018 54.1749 10.6422C54.4744 10.5063 54.7885 10.3638 55.1166 10.1997C56.2263 9.64051 57.25 8.92493 58.1565 8.0749C58.2138 8.01754 58.285 7.97603 58.3632 7.95443C58.4414 7.93283 58.5238 7.93188 58.6024 7.95167C58.6811 7.97146 58.7532 8.01132 58.8119 8.06734C58.8705 8.12337 58.9136 8.19364 58.9369 8.27131C59.5218 10.6654 59.4106 13.1767 58.6163 15.5097C57.8954 17.6726 56.6119 18.5149 55.6632 18.8407C55.233 18.9879 54.7814 19.0629 54.3268 19.0624ZM58.1977 9.29271C57.3787 9.97261 56.4857 10.5582 55.5357 11.0383C55.1968 11.208 54.8719 11.3557 54.5621 11.4958C53.1558 12.1347 52.224 12.5566 51.661 14.2451C51.0915 15.9541 52.3248 17.3285 53.0569 17.8165C53.4101 17.9974 53.7969 18.1031 54.193 18.1268C54.5891 18.1506 54.9858 18.0918 55.358 17.9543C56.4329 17.5854 57.2518 16.6376 57.7266 15.213C58.3547 13.3056 58.5163 11.2754 58.1977 9.29271Z" fill="#41479B"/>
<path d="M50.5843 22.4689C50.5582 22.4691 50.5321 22.4669 50.5065 22.4624C50.4457 22.4523 50.3876 22.4303 50.3354 22.3977C50.2831 22.3651 50.2378 22.3225 50.202 22.2724C50.1663 22.2223 50.1407 22.1657 50.1268 22.1057C50.1129 22.0457 50.111 21.9836 50.1211 21.9228C50.7899 18.2913 52.7704 15.0322 55.6857 12.7658C55.7869 12.6948 55.912 12.6666 56.0338 12.6875C56.1557 12.7083 56.2644 12.7764 56.3363 12.8769C56.4082 12.9775 56.4374 13.1024 56.4177 13.2244C56.3979 13.3464 56.3308 13.4557 56.2308 13.5285C56.1872 13.5627 51.9497 16.6564 51.046 22.0775C51.0277 22.1868 50.9713 22.2861 50.8868 22.3578C50.8022 22.4294 50.6951 22.4688 50.5843 22.4689ZM46.5099 17.9277C46.146 17.9279 45.7845 17.8679 45.4402 17.75C44.6799 17.4894 43.6529 16.8168 43.0791 15.095C42.4551 13.2613 42.3679 11.2874 42.8279 9.40582C42.8511 9.32808 42.8941 9.25771 42.9527 9.20158C43.0113 9.14544 43.0834 9.10548 43.1621 9.08559C43.2407 9.0657 43.3232 9.06657 43.4014 9.08811C43.4797 9.10965 43.5509 9.15112 43.6083 9.20847C44.3055 9.86203 45.0923 10.4127 45.945 10.8439C46.1986 10.9705 46.4415 11.0783 46.673 11.1857C47.8261 11.7088 48.8222 12.1602 49.3749 13.8182C49.5754 14.5089 49.546 15.2462 49.291 15.9188C49.036 16.5914 48.5693 17.1629 47.9611 17.5471C47.5228 17.8078 47.0198 17.9397 46.5099 17.9277ZM43.5779 10.4253C43.3711 11.8936 43.5046 13.3898 43.9679 14.7983C44.3265 15.8736 44.9405 16.588 45.744 16.8636C46.0184 16.964 46.3103 17.0074 46.602 16.9913C46.8938 16.9752 47.1792 16.8998 47.4408 16.7699C47.9869 16.4061 48.9075 15.3824 48.4847 14.1135C48.0619 12.8446 47.355 12.5239 46.2854 12.0388C46.044 11.9291 45.7899 11.8138 45.5255 11.6816C44.8342 11.332 44.1815 10.9109 43.5779 10.4253Z" fill="#41479B"/>
<path d="M50.9375 20.5938C50.842 20.5938 50.7488 20.5647 50.6703 20.5104C50.5918 20.456 50.5318 20.379 50.4983 20.2895C49.1685 16.742 45.125 14.4635 45.0847 14.441C45.0309 14.411 44.9835 14.3708 44.9453 14.3226C44.907 14.2744 44.8786 14.2191 44.8617 14.1599C44.8448 14.1007 44.8398 14.0387 44.8468 13.9776C44.8539 13.9164 44.8729 13.8573 44.9028 13.8035C44.9327 13.7497 44.973 13.7023 45.0212 13.664C45.0694 13.6258 45.1247 13.5974 45.1839 13.5805C45.2431 13.5636 45.3051 13.5585 45.3662 13.5656C45.4274 13.5726 45.4865 13.5917 45.5403 13.6216C45.7185 13.7205 49.9264 16.0933 51.3767 19.9605C51.3984 20.0182 51.4084 20.0795 51.4063 20.1411C51.4043 20.2027 51.39 20.2632 51.3645 20.3193C51.339 20.3754 51.3027 20.4259 51.2577 20.4679C51.2126 20.5099 51.1597 20.5427 51.102 20.5642C51.0493 20.5836 50.9937 20.5936 50.9375 20.5938Z" fill="#41479B"/>
</g>
<path d="M20.4949 50H19.3869L22.5914 41.2727H23.6824L26.8869 50H25.7789L23.171 42.6534H23.1028L20.4949 50ZM20.9039 46.5909H25.3699V47.5284H20.9039V46.5909ZM30.752 52.5909C30.2662 52.5909 29.8485 52.5284 29.4991 52.4034C29.1497 52.2812 28.8585 52.1193 28.6255 51.9176C28.3954 51.7188 28.2122 51.5057 28.0758 51.2784L28.877 50.7159C28.9679 50.8352 29.0829 50.9716 29.2221 51.125C29.3613 51.2812 29.5517 51.4162 29.7931 51.5298C30.0375 51.6463 30.3571 51.7045 30.752 51.7045C31.2804 51.7045 31.7164 51.5767 32.0602 51.321C32.4039 51.0653 32.5758 50.6648 32.5758 50.1193V48.7898H32.4906C32.4167 48.9091 32.3116 49.0568 32.1752 49.233C32.0417 49.4062 31.8485 49.5611 31.5957 49.6974C31.3457 49.831 31.0076 49.8977 30.5815 49.8977C30.0531 49.8977 29.5787 49.7727 29.1582 49.5227C28.7406 49.2727 28.4096 48.9091 28.1653 48.4318C27.9238 47.9545 27.8031 47.375 27.8031 46.6932C27.8031 46.0227 27.921 45.4389 28.1568 44.9418C28.3926 44.4418 28.7207 44.0554 29.1412 43.7827C29.5616 43.5071 30.0474 43.3693 30.5985 43.3693C31.0247 43.3693 31.3627 43.4403 31.6127 43.5824C31.8656 43.7216 32.0588 43.8807 32.1923 44.0597C32.3287 44.2358 32.4338 44.3807 32.5076 44.4943H32.6099V43.4545H33.5815V50.1875C33.5815 50.75 33.4537 51.2074 33.198 51.5597C32.9451 51.9148 32.6042 52.1747 32.1752 52.3395C31.7491 52.5071 31.2747 52.5909 30.752 52.5909ZM30.7179 48.9943C31.1213 48.9943 31.4622 48.902 31.7406 48.7173C32.019 48.5327 32.2306 48.267 32.3755 47.9205C32.5204 47.5739 32.5929 47.1591 32.5929 46.6761C32.5929 46.2045 32.5218 45.7884 32.3798 45.4276C32.2377 45.0668 32.0275 44.7841 31.7491 44.5795C31.4707 44.375 31.127 44.2727 30.7179 44.2727C30.2917 44.2727 29.9366 44.3807 29.6525 44.5966C29.3713 44.8125 29.1596 45.1023 29.0176 45.4659C28.8784 45.8295 28.8088 46.233 28.8088 46.6761C28.8088 47.1307 28.8798 47.5327 29.0218 47.8821C29.1667 48.2287 29.3798 48.5014 29.661 48.7003C29.9451 48.8963 30.2974 48.9943 30.7179 48.9943ZM35.4224 50V43.4545H36.394V44.4432H36.4622C36.5815 44.1193 36.7974 43.8565 37.1099 43.6548C37.4224 43.4531 37.7747 43.3523 38.1667 43.3523C38.2406 43.3523 38.3329 43.3537 38.4437 43.3565C38.5545 43.3594 38.6383 43.3636 38.6951 43.3693V44.392C38.661 44.3835 38.5829 44.3707 38.4608 44.3537C38.3414 44.3338 38.215 44.3239 38.0815 44.3239C37.7633 44.3239 37.4792 44.3906 37.2292 44.5241C36.9821 44.6548 36.786 44.8366 36.6412 45.0696C36.4991 45.2997 36.4281 45.5625 36.4281 45.858V50H35.4224ZM39.8873 50V43.4545H40.8929V50H39.8873ZM40.3986 42.3636C40.2026 42.3636 40.0336 42.2969 39.8915 42.1634C39.7523 42.0298 39.6827 41.8693 39.6827 41.6818C39.6827 41.4943 39.7523 41.3338 39.8915 41.2003C40.0336 41.0668 40.2026 41 40.3986 41C40.5946 41 40.7623 41.0668 40.9015 41.2003C41.0435 41.3338 41.1145 41.4943 41.1145 41.6818C41.1145 41.8693 41.0435 42.0298 40.9015 42.1634C40.7623 42.2969 40.5946 42.3636 40.3986 42.3636ZM45.394 50.1364C44.7804 50.1364 44.252 49.9915 43.8088 49.7017C43.3656 49.4119 43.0247 49.0128 42.786 48.5043C42.5474 47.9957 42.4281 47.4148 42.4281 46.7614C42.4281 46.0966 42.5502 45.5099 42.7946 45.0014C43.0417 44.4901 43.3855 44.0909 43.8258 43.804C44.269 43.5142 44.786 43.3693 45.377 43.3693C45.8372 43.3693 46.252 43.4545 46.6213 43.625C46.9906 43.7955 47.2931 44.0341 47.5289 44.3409C47.7647 44.6477 47.911 45.0057 47.9679 45.4148H46.9622C46.8855 45.1165 46.715 44.8523 46.4508 44.6222C46.1895 44.3892 45.8372 44.2727 45.394 44.2727C45.002 44.2727 44.6582 44.375 44.3627 44.5795C44.0701 44.7812 43.8414 45.0668 43.6767 45.4361C43.5147 45.8026 43.4338 46.233 43.4338 46.7273C43.4338 47.233 43.5133 47.6733 43.6724 48.0483C43.8343 48.4233 44.0616 48.7145 44.3542 48.9219C44.6497 49.1293 44.9963 49.233 45.394 49.233C45.6554 49.233 45.8926 49.1875 46.1056 49.0966C46.3187 49.0057 46.4991 48.875 46.6468 48.7045C46.7946 48.5341 46.8997 48.3295 46.9622 48.0909H47.9679C47.911 48.4773 47.7704 48.8253 47.546 49.1349C47.3244 49.4418 47.0304 49.6861 46.6639 49.8679C46.3002 50.0469 45.877 50.1364 45.394 50.1364ZM53.563 47.3239V43.4545H54.5687V50H53.563V48.892H53.4949C53.3414 49.2244 53.1028 49.5071 52.7789 49.7401C52.4551 49.9702 52.046 50.0852 51.5517 50.0852C51.1426 50.0852 50.7789 49.9957 50.4608 49.8168C50.1426 49.6349 49.8926 49.3622 49.7108 48.9986C49.5289 48.6321 49.438 48.1705 49.438 47.6136V43.4545H50.4437V47.5455C50.4437 48.0227 50.5772 48.4034 50.8443 48.6875C51.1142 48.9716 51.4579 49.1136 51.8755 49.1136C52.1255 49.1136 52.3798 49.0497 52.6383 48.9219C52.8997 48.794 53.1184 48.598 53.2946 48.3338C53.4735 48.0696 53.563 47.733 53.563 47.3239ZM57.4164 41.2727V50H56.4107V41.2727H57.4164ZM62.1049 43.4545V44.3068H58.7129V43.4545H62.1049ZM59.7015 41.8864H60.7072V48.125C60.7072 48.4091 60.7484 48.6222 60.8308 48.7642C60.916 48.9034 61.024 48.9972 61.1547 49.0455C61.2882 49.0909 61.4288 49.1136 61.5765 49.1136C61.6873 49.1136 61.7782 49.108 61.8493 49.0966C61.9203 49.0824 61.9771 49.071 62.0197 49.0625L62.2243 49.9659C62.1561 49.9915 62.0609 50.017 61.9387 50.0426C61.8166 50.071 61.6618 50.0852 61.4743 50.0852C61.1902 50.0852 60.9118 50.0241 60.639 49.902C60.3691 49.7798 60.1447 49.5938 59.9657 49.3438C59.7896 49.0938 59.7015 48.7784 59.7015 48.3977V41.8864ZM67.7427 47.3239V43.4545H68.7484V50H67.7427V48.892H67.6745C67.5211 49.2244 67.2825 49.5071 66.9586 49.7401C66.6348 49.9702 66.2257 50.0852 65.7314 50.0852C65.3223 50.0852 64.9586 49.9957 64.6404 49.8168C64.3223 49.6349 64.0723 49.3622 63.8904 48.9986C63.7086 48.6321 63.6177 48.1705 63.6177 47.6136V43.4545H64.6234V47.5455C64.6234 48.0227 64.7569 48.4034 65.024 48.6875C65.2939 48.9716 65.6376 49.1136 66.0552 49.1136C66.3052 49.1136 66.5595 49.0497 66.818 48.9219C67.0794 48.794 67.2981 48.598 67.4743 48.3338C67.6532 48.0696 67.7427 47.733 67.7427 47.3239ZM70.5904 50V43.4545H71.562V44.4432H71.6301C71.7495 44.1193 71.9654 43.8565 72.2779 43.6548C72.5904 43.4531 72.9426 43.3523 73.3347 43.3523C73.4086 43.3523 73.5009 43.3537 73.6117 43.3565C73.7225 43.3594 73.8063 43.3636 73.8631 43.3693V44.392C73.829 44.3835 73.7509 44.3707 73.6287 44.3537C73.5094 44.3338 73.383 44.3239 73.2495 44.3239C72.9313 44.3239 72.6472 44.3906 72.3972 44.5241C72.15 44.6548 71.954 44.8366 71.8091 45.0696C71.6671 45.2997 71.5961 45.5625 71.5961 45.858V50H70.5904ZM77.6003 50.1364C76.9696 50.1364 76.4256 49.9972 75.9682 49.7188C75.5137 49.4375 75.1628 49.0455 74.9157 48.5426C74.6713 48.0369 74.5492 47.4489 74.5492 46.7784C74.5492 46.108 74.6713 45.517 74.9157 45.0057C75.1628 44.4915 75.5066 44.0909 75.9469 43.804C76.3901 43.5142 76.9071 43.3693 77.498 43.3693C77.839 43.3693 78.1756 43.4261 78.508 43.5398C78.8404 43.6534 79.1429 43.8381 79.4157 44.0938C79.6884 44.3466 79.9057 44.6818 80.0676 45.0994C80.2296 45.517 80.3105 46.0312 80.3105 46.642V47.0682H75.2651V46.1989H79.2878C79.2878 45.8295 79.214 45.5 79.0662 45.2102C78.9213 44.9205 78.714 44.6918 78.4441 44.5241C78.177 44.3565 77.8617 44.2727 77.498 44.2727C77.0975 44.2727 76.7509 44.3722 76.4583 44.571C76.1685 44.767 75.9455 45.0227 75.7892 45.3381C75.633 45.6534 75.5549 45.9915 75.5549 46.3523V46.9318C75.5549 47.4261 75.6401 47.8452 75.8105 48.1889C75.9838 48.5298 76.2239 48.7898 76.5307 48.9688C76.8375 49.1449 77.1941 49.233 77.6003 49.233C77.8645 49.233 78.1032 49.196 78.3162 49.1222C78.5321 49.0455 78.7182 48.9318 78.8745 48.7812C79.0307 48.6278 79.1515 48.4375 79.2367 48.2102L80.2083 48.483C80.106 48.8125 79.9341 49.1023 79.6926 49.3523C79.4512 49.5994 79.1529 49.7926 78.7978 49.9318C78.4426 50.0682 78.0435 50.1364 77.6003 50.1364Z" fill="#1A1B1F"/>
<defs>
<clipPath id="clip0_3492_70683">
<rect width="30" height="30" fill="white" transform="translate(35 7)"/>
</clipPath>
</defs>
</svg>
