<svg width="20" height="16" viewBox="0 0 20 16" fill="none" xmlns="http://www.w3.org/2000/svg">
<path d="M0.26617 7.32567L6.62987 0.763167C6.80133 0.592393 7.03097 0.497898 7.26933 0.500034C7.50769 0.50217 7.73571 0.600767 7.90426 0.774587C8.07282 0.948407 8.16843 1.18354 8.1705 1.42935C8.17257 1.67516 8.08094 1.91198 7.91534 2.08879L3.10347 7.05098L19.0909 7.05098C19.332 7.05098 19.5632 7.14975 19.7337 7.32557C19.9042 7.50138 20 7.73984 20 7.98848C20 8.23712 19.9042 8.47558 19.7337 8.65139C19.5632 8.82721 19.332 8.92598 19.0909 8.92598L3.10347 8.92598L7.91534 13.8882C8.00216 13.9746 8.07142 14.0781 8.11907 14.1925C8.16671 14.3069 8.19179 14.4299 8.19284 14.5544C8.19389 14.6788 8.17089 14.8023 8.12518 14.9175C8.07946 15.0327 8.01196 15.1374 7.9266 15.2254C7.84125 15.3134 7.73974 15.383 7.62802 15.4302C7.51629 15.4773 7.39658 15.501 7.27587 15.5C7.15516 15.4989 7.03587 15.473 6.92496 15.4239C6.81404 15.3748 6.71373 15.3033 6.62987 15.2138L0.26617 8.65129C0.0957406 8.47548 -6.76396e-07 8.23707 -6.54664e-07 7.98848C-6.32931e-07 7.73989 0.0957407 7.50147 0.26617 7.32567Z" fill="#3D54A5"/>
</svg>
