<svg width="12" height="12" viewBox="0 0 12 12" fill="none" xmlns="http://www.w3.org/2000/svg">
<path d="M9.369 2.006L8.1225 0.3895C8.02909 0.26831 7.9091 0.170174 7.7718 0.102646C7.63449 0.0351192 7.48351 2.48744e-06 7.3305 0L4.6695 0C4.51657 7.89668e-05 4.3657 0.0352324 4.22848 0.102757C4.09126 0.170281 3.97136 0.268377 3.878 0.3895L2.631 2.006C1.92351 2.03664 1.25512 2.33903 0.765012 2.85018C0.274909 3.36133 0.000881753 4.04185 0 4.75L0 9.25C0.000794085 9.9791 0.29078 10.6781 0.806333 11.1937C1.32189 11.7092 2.0209 11.9992 2.75 12H9.25C9.9791 11.9992 10.6781 11.7092 11.1937 11.1937C11.7092 10.6781 11.9992 9.9791 12 9.25V4.75C11.9991 4.04185 11.7251 3.36133 11.235 2.85018C10.7449 2.33903 10.0765 2.03664 9.369 2.006ZM10.5 9.25C10.5 9.58152 10.3683 9.89946 10.1339 10.1339C9.89946 10.3683 9.58152 10.5 9.25 10.5H2.75C2.41848 10.5 2.10054 10.3683 1.86612 10.1339C1.6317 9.89946 1.5 9.58152 1.5 9.25V4.75C1.5 4.41848 1.6317 4.10054 1.86612 3.86612C2.10054 3.6317 2.41848 3.5 2.75 3.5H9.25C9.58152 3.5 9.89946 3.6317 10.1339 3.86612C10.3683 4.10054 10.5 4.41848 10.5 4.75V9.25Z" fill="black"/>
<path d="M6 4.25C5.4561 4.25 4.92442 4.41128 4.47218 4.71346C4.01995 5.01563 3.66747 5.44512 3.45933 5.94762C3.25119 6.45012 3.19673 7.00305 3.30284 7.5365C3.40895 8.06995 3.67086 8.55995 4.05546 8.94454C4.44005 9.32914 4.93005 9.59105 5.4635 9.69716C5.99695 9.80327 6.54988 9.74881 7.05238 9.54067C7.55488 9.33253 7.98437 8.98005 8.28654 8.52782C8.58872 8.07558 8.75 7.5439 8.75 7C8.74921 6.2709 8.45922 5.57189 7.94367 5.05633C7.42811 4.54078 6.7291 4.25079 6 4.25ZM6 8.25C5.75277 8.25 5.5111 8.17669 5.30554 8.03934C5.09998 7.90199 4.93976 7.70676 4.84515 7.47835C4.75054 7.24995 4.72579 6.99861 4.77402 6.75614C4.82225 6.51366 4.9413 6.29093 5.11612 6.11612C5.29093 5.9413 5.51366 5.82225 5.75614 5.77402C5.99861 5.72579 6.24995 5.75054 6.47836 5.84515C6.70676 5.93976 6.90199 6.09998 7.03934 6.30554C7.17669 6.5111 7.25 6.75277 7.25 7C7.25 7.33152 7.11831 7.64946 6.88388 7.88388C6.64946 8.1183 6.33152 8.25 6 8.25Z" fill="black"/>
</svg>
