<svg width="100" height="64" viewBox="0 0 100 64" fill="none" xmlns="http://www.w3.org/2000/svg">
<rect x="0.5" y="0.5" width="99" height="63" rx="7.5" fill="white"/>
<rect x="0.5" y="0.5" width="99" height="63" rx="7.5" stroke="#F1F1F1"/>
<path d="M63.8458 15.1949L60.0444 8.6122C59.9938 8.5245 59.921 8.45167 59.8333 8.40104C59.7456 8.3504 59.6461 8.32374 59.5448 8.32374H51.9352C51.8338 8.32364 51.7342 8.35025 51.6464 8.40089C51.5586 8.45153 51.4857 8.52442 51.435 8.6122L48.7218 13.3107C48.4361 13.2334 48.1379 13.2134 47.8445 13.2519C47.551 13.2904 47.2681 13.3865 47.012 13.5349C46.756 13.6832 46.5318 13.8808 46.3524 14.1162C46.173 14.3516 46.042 14.6202 45.9669 14.9064H40.8831L39.6196 12.2653C39.9145 12.0586 40.1553 11.784 40.3217 11.4647C40.4882 11.1454 40.5755 10.7907 40.5762 10.4307C40.5762 9.1897 39.5666 8.18066 38.3262 8.18066C37.0858 8.18066 36.0762 9.1897 36.0762 10.4307C36.0762 11.6716 37.0858 12.6807 38.3262 12.6807C38.3954 12.6807 38.4606 12.6662 38.5287 12.6599L39.8671 15.4568L36.2216 21.7839C36.1709 21.8715 36.1443 21.9709 36.1443 22.0721C36.1443 22.1733 36.1709 22.2727 36.2216 22.3603L39.8637 28.6759L38.7427 30.8924C38.6354 30.8762 38.5281 30.8589 38.4167 30.8589C37.1764 30.8589 36.1667 31.8686 36.1667 33.1089C36.1667 34.3493 37.1764 35.3589 38.4167 35.3589C39.6571 35.3589 40.6667 34.3499 40.6667 33.1089C40.6667 32.3947 40.3246 31.7635 39.8037 31.351L40.8756 29.2314H45.9669C46.2237 30.1914 47.0931 30.9045 48.1333 30.9045C48.3358 30.9045 48.5325 30.878 48.7218 30.8272L51.435 35.5314C51.4857 35.6191 51.5585 35.692 51.6462 35.7426C51.7339 35.7932 51.8334 35.8199 51.9346 35.8199H59.5443C59.6456 35.82 59.7452 35.7934 59.833 35.7427C59.9208 35.6921 59.9938 35.6192 60.0444 35.5314L63.8464 28.943C63.897 28.8553 63.9237 28.7558 63.9237 28.6545C63.9237 28.5532 63.897 28.4538 63.8464 28.3661L61.0639 23.5464C61.4724 23.1388 61.7087 22.5897 61.7238 22.0128C61.7389 21.4358 61.5318 20.8752 61.1452 20.4466L63.8464 15.7718C63.897 15.6841 63.9237 15.5846 63.9237 15.4834C63.9237 15.3821 63.8964 15.2826 63.8458 15.1949ZM37.23 10.4301C37.23 9.82605 37.7221 9.33393 38.3262 9.33393C38.9302 9.33393 39.4223 9.82605 39.4223 10.4301C39.4223 11.0347 38.9308 11.5262 38.3262 11.5262C37.7216 11.5262 37.23 11.0347 37.23 10.4301ZM38.4173 34.2051C37.8127 34.2051 37.3212 33.7136 37.3212 33.1089C37.3212 32.5049 37.8127 32.0128 38.4173 32.0128C39.0214 32.0128 39.5135 32.5049 39.5135 33.1089C39.5135 33.7136 39.0214 34.2051 38.4173 34.2051ZM48.1339 14.3872C48.7396 14.3872 49.23 14.8799 49.23 15.4834C49.23 16.1024 48.7287 16.5795 48.1339 16.5795C47.5293 16.5795 47.0377 16.0874 47.0377 15.4834C47.0377 14.8787 47.5293 14.3872 48.1339 14.3872ZM40.8514 16.0603H45.9583C46.2716 17.2395 47.516 17.9803 48.7212 17.656H48.7223L51.2694 22.0718L48.7425 26.4461L48.7223 26.4818L48.7194 26.4812C47.4975 26.1512 46.2658 26.9197 45.9583 28.0776H40.8514L37.3881 22.0718L40.8514 16.0603ZM47.0371 28.6545C47.0371 28.0499 47.5293 27.5584 48.1333 27.5584C48.7391 27.5584 49.2294 28.0511 49.2294 28.6545C49.2294 29.2736 48.7287 29.7507 48.1333 29.7507C47.5293 29.7507 47.0371 29.2586 47.0371 28.6545ZM59.2125 34.666H52.2681L49.721 30.2509C50.1401 29.8246 50.3776 29.2523 50.3833 28.6545C50.3833 28.0487 50.1144 27.4539 49.7204 27.061L52.2681 22.6487H57.3364C57.6854 23.7287 58.8767 24.4424 60.0612 24.1239L60.0641 24.1234L62.6804 28.6545L59.2125 34.666ZM60.5718 21.9507C60.5718 22.5662 60.0739 23.0468 59.4756 23.0468C59.1995 23.0473 58.9335 22.943 58.7311 22.7552C58.5288 22.5673 58.4052 22.3097 58.3852 22.0343C58.3835 22.017 58.3818 21.9668 58.3794 21.9507C58.3794 21.3461 58.8716 20.8545 59.4756 20.8545C60.056 20.8545 60.5718 21.3293 60.5718 21.9507ZM60.1783 19.8143L60.1558 19.8085C59.9354 19.7412 59.7066 19.7049 59.4762 19.7007C58.4492 19.7007 57.4875 20.4489 57.2723 21.4949H52.2687L49.7216 17.0797C50.1409 16.6535 50.3783 16.0812 50.3839 15.4834C50.3783 14.8863 50.1405 14.3148 49.721 13.8899V13.8887L52.2687 9.47759H59.2125L62.6804 15.4834L60.1783 19.8143Z" fill="#41479B"/>
<path d="M58.8111 25.4139C58.6786 25.4904 58.5819 25.6165 58.5423 25.7642C58.5027 25.912 58.5234 26.0695 58.5999 26.202L60.0163 28.6545L57.8794 32.3584H53.6015L52.2538 30.0224C52.2162 29.9563 52.1659 29.8982 52.1057 29.8516C52.0456 29.805 51.9768 29.7707 51.9034 29.7508C51.83 29.7308 51.7533 29.7256 51.6779 29.7354C51.6024 29.7452 51.5297 29.7699 51.4638 29.8079C51.3979 29.846 51.3402 29.8967 51.294 29.9571C51.2477 30.0175 51.2139 30.0865 51.1945 30.1601C51.175 30.2336 51.1703 30.3103 51.1807 30.3857C51.191 30.4611 51.2161 30.5337 51.2546 30.5993L52.769 33.2243C52.8196 33.312 52.8924 33.3849 52.9801 33.4355C53.0678 33.4861 53.1673 33.5128 53.2686 33.5128H58.2128C58.314 33.5127 58.4134 33.486 58.5009 33.4353C58.5885 33.3847 58.6613 33.3119 58.7119 33.2243L61.1822 28.9436C61.2329 28.8559 61.2595 28.7564 61.2595 28.6551C61.2595 28.5538 61.2329 28.4543 61.1822 28.3666L59.5997 25.6251C59.5619 25.5594 59.5114 25.5018 59.4513 25.4557C59.3911 25.4095 59.3224 25.3756 59.2492 25.356C59.1759 25.3364 59.0996 25.3314 59.0244 25.3414C58.9492 25.3513 58.8767 25.376 58.8111 25.4139ZM58.2128 10.6314H53.2674C53.1662 10.6314 53.0667 10.6581 52.979 10.7087C52.8913 10.7594 52.8185 10.8322 52.7678 10.9199L51.2534 13.542C51.2149 13.6077 51.1898 13.6803 51.1795 13.7556C51.1692 13.831 51.1739 13.9077 51.1933 13.9813C51.2128 14.0548 51.2466 14.1238 51.2928 14.1842C51.339 14.2447 51.3967 14.2954 51.4626 14.3334C51.5285 14.3715 51.6013 14.3961 51.6767 14.4059C51.7522 14.4157 51.8288 14.4105 51.9023 14.3906C51.9757 14.3706 52.0444 14.3364 52.1046 14.2897C52.1647 14.2431 52.215 14.1851 52.2526 14.1189L53.6003 11.7853H57.8799L60.0151 15.4834L58.7413 17.6878C58.7034 17.7534 58.6788 17.8259 58.6689 17.901C58.6591 17.9762 58.6641 18.0526 58.6837 18.1258C58.7034 18.199 58.7372 18.2676 58.7834 18.3277C58.8295 18.3878 58.8871 18.4383 58.9527 18.4761C59.0184 18.514 59.0908 18.5386 59.166 18.5485C59.2411 18.5584 59.3175 18.5533 59.3907 18.5337C59.4639 18.5141 59.5325 18.4802 59.5927 18.4341C59.6528 18.3879 59.7032 18.3304 59.7411 18.2647L61.1817 15.7712C61.2323 15.6835 61.259 15.5841 61.259 15.4828C61.259 15.3815 61.2323 15.282 61.1817 15.1943L58.7124 10.9193C58.6618 10.8316 58.589 10.7588 58.5013 10.7082C58.4136 10.6575 58.3141 10.6314 58.2128 10.6314ZM41.8513 26.9237H44.8917C45.0447 26.9237 45.1914 26.863 45.2996 26.7548C45.4078 26.6466 45.4686 26.4998 45.4686 26.3468C45.4686 26.1938 45.4078 26.0471 45.2996 25.9389C45.1914 25.8307 45.0447 25.7699 44.8917 25.7699H42.1847L40.0519 22.0712L42.1853 18.368H44.8911C45.0441 18.368 45.1908 18.3072 45.299 18.199C45.4072 18.0908 45.468 17.9441 45.468 17.7911C45.468 17.638 45.4072 17.4913 45.299 17.3831C45.1908 17.2749 45.0441 17.2141 44.8911 17.2141H41.8519C41.7505 17.2142 41.651 17.2409 41.5633 17.2917C41.4756 17.3424 41.4028 17.4154 41.3522 17.5032L38.8859 21.7834C38.8353 21.871 38.8086 21.9704 38.8086 22.0715C38.8086 22.1727 38.8353 22.2721 38.8859 22.3597L41.3517 26.6353C41.4023 26.723 41.4751 26.7958 41.5628 26.8465C41.6505 26.8971 41.75 26.9237 41.8513 26.9237Z" fill="#41479B"/>
<path d="M31.8823 44H30.8255C30.763 43.696 30.6536 43.429 30.4973 43.1989C30.3439 42.9688 30.1564 42.7756 29.9348 42.6193C29.7161 42.4602 29.4732 42.3409 29.2061 42.2614C28.9391 42.1818 28.6607 42.142 28.3709 42.142C27.8425 42.142 27.3638 42.2756 26.9348 42.5426C26.5087 42.8097 26.1692 43.2031 25.9164 43.723C25.6664 44.2429 25.5414 44.8807 25.5414 45.6364C25.5414 46.392 25.6664 47.0298 25.9164 47.5497C26.1692 48.0696 26.5087 48.4631 26.9348 48.7301C27.3638 48.9972 27.8425 49.1307 28.3709 49.1307C28.6607 49.1307 28.9391 49.0909 29.2061 49.0114C29.4732 48.9318 29.7161 48.8139 29.9348 48.6577C30.1564 48.4986 30.3439 48.304 30.4973 48.0739C30.6536 47.8409 30.763 47.5739 30.8255 47.2727H31.8823C31.8027 47.7187 31.6578 48.1179 31.4476 48.4702C31.2374 48.8224 30.976 49.1222 30.6635 49.3693C30.351 49.6136 30.0002 49.7997 29.611 49.9276C29.2246 50.0554 28.8113 50.1193 28.3709 50.1193C27.6266 50.1193 26.9647 49.9375 26.3851 49.5739C25.8056 49.2102 25.3496 48.6932 25.0172 48.0227C24.6848 47.3523 24.5186 46.5568 24.5186 45.6364C24.5186 44.7159 24.6848 43.9205 25.0172 43.25C25.3496 42.5795 25.8056 42.0625 26.3851 41.6989C26.9647 41.3352 27.6266 41.1534 28.3709 41.1534C28.8113 41.1534 29.2246 41.2173 29.611 41.3452C30.0002 41.473 30.351 41.6605 30.6635 41.9077C30.976 42.152 31.2374 42.4503 31.4476 42.8026C31.6578 43.152 31.8027 43.5511 31.8823 44ZM34.4593 46.0625V50H33.4537V41.2727H34.4593V44.4773H34.5446C34.698 44.1392 34.9281 43.8707 35.2349 43.6719C35.5446 43.4702 35.9565 43.3693 36.4707 43.3693C36.9167 43.3693 37.3074 43.4588 37.6426 43.6378C37.9778 43.8139 38.2377 44.0852 38.4224 44.4517C38.6099 44.8153 38.7037 45.2784 38.7037 45.8409V50H37.698V45.9091C37.698 45.3892 37.563 44.9872 37.2931 44.7031C37.0261 44.4162 36.6554 44.2727 36.1809 44.2727C35.8514 44.2727 35.5559 44.3423 35.2946 44.4815C35.036 44.6207 34.8315 44.8239 34.6809 45.0909C34.5332 45.358 34.4593 45.6818 34.4593 46.0625ZM43.2878 50.1364C42.6571 50.1364 42.1131 49.9972 41.6557 49.7188C41.2012 49.4375 40.8503 49.0455 40.6032 48.5426C40.3588 48.0369 40.2367 47.4489 40.2367 46.7784C40.2367 46.108 40.3588 45.517 40.6032 45.0057C40.8503 44.4915 41.1941 44.0909 41.6344 43.804C42.0776 43.5142 42.5946 43.3693 43.1855 43.3693C43.5265 43.3693 43.8631 43.4261 44.1955 43.5398C44.5279 43.6534 44.8304 43.8381 45.1032 44.0938C45.3759 44.3466 45.5932 44.6818 45.7551 45.0994C45.9171 45.517 45.998 46.0312 45.998 46.642V47.0682H40.9526V46.1989H44.9753C44.9753 45.8295 44.9015 45.5 44.7537 45.2102C44.6088 44.9205 44.4015 44.6918 44.1316 44.5241C43.8645 44.3565 43.5492 44.2727 43.1855 44.2727C42.785 44.2727 42.4384 44.3722 42.1458 44.571C41.856 44.767 41.633 45.0227 41.4767 45.3381C41.3205 45.6534 41.2424 45.9915 41.2424 46.3523V46.9318C41.2424 47.4261 41.3276 47.8452 41.498 48.1889C41.6713 48.5298 41.9114 48.7898 42.2182 48.9688C42.525 49.1449 42.8816 49.233 43.2878 49.233C43.552 49.233 43.7907 49.196 44.0037 49.1222C44.2196 49.0455 44.4057 48.9318 44.562 48.7812C44.7182 48.6278 44.839 48.4375 44.9242 48.2102L45.8958 48.483C45.7935 48.8125 45.6216 49.1023 45.3801 49.3523C45.1387 49.5994 44.8404 49.7926 44.4853 49.9318C44.1301 50.0682 43.731 50.1364 43.2878 50.1364ZM47.5279 50V43.4545H48.4995V44.4773H48.5847C48.7211 44.1278 48.9412 43.8565 49.2452 43.6634C49.5492 43.4673 49.9142 43.3693 50.3404 43.3693C50.7722 43.3693 51.1316 43.4673 51.4185 43.6634C51.7083 43.8565 51.9341 44.1278 52.0961 44.4773H52.1642C52.3319 44.1392 52.5833 43.8707 52.9185 43.6719C53.2537 43.4702 53.6557 43.3693 54.1245 43.3693C54.7097 43.3693 55.1884 43.5526 55.5605 43.919C55.9327 44.2827 56.1188 44.8494 56.1188 45.6193V50H55.1131V45.6193C55.1131 45.1364 54.981 44.7912 54.7168 44.5838C54.4526 44.3764 54.1415 44.2727 53.7836 44.2727C53.3233 44.2727 52.9668 44.4119 52.714 44.6903C52.4611 44.9659 52.3347 45.3153 52.3347 45.7386V50H51.312V45.517C51.312 45.1449 51.1912 44.8452 50.9498 44.6179C50.7083 44.3878 50.3972 44.2727 50.0165 44.2727C49.7551 44.2727 49.5108 44.3423 49.2836 44.4815C49.0591 44.6207 48.8773 44.8139 48.7381 45.0611C48.6017 45.3054 48.5336 45.5881 48.5336 45.9091V50H47.5279ZM57.9576 50V43.4545H58.9632V50H57.9576ZM58.4689 42.3636C58.2729 42.3636 58.1039 42.2969 57.9618 42.1634C57.8226 42.0298 57.753 41.8693 57.753 41.6818C57.753 41.4943 57.8226 41.3338 57.9618 41.2003C58.1039 41.0668 58.2729 41 58.4689 41C58.665 41 58.8326 41.0668 58.9718 41.2003C59.1138 41.3338 59.1848 41.4943 59.1848 41.6818C59.1848 41.8693 59.1138 42.0298 58.9718 42.1634C58.8326 42.2969 58.665 42.3636 58.4689 42.3636ZM63.4643 50.1364C62.8507 50.1364 62.3223 49.9915 61.8791 49.7017C61.4359 49.4119 61.095 49.0128 60.8564 48.5043C60.6177 47.9957 60.4984 47.4148 60.4984 46.7614C60.4984 46.0966 60.6206 45.5099 60.8649 45.0014C61.112 44.4901 61.4558 44.0909 61.8961 43.804C62.3393 43.5142 62.8564 43.3693 63.4473 43.3693C63.9075 43.3693 64.3223 43.4545 64.6916 43.625C65.0609 43.7955 65.3635 44.0341 65.5993 44.3409C65.835 44.6477 65.9814 45.0057 66.0382 45.4148H65.0325C64.9558 45.1165 64.7853 44.8523 64.5211 44.6222C64.2598 44.3892 63.9075 44.2727 63.4643 44.2727C63.0723 44.2727 62.7285 44.375 62.4331 44.5795C62.1404 44.7812 61.9118 45.0668 61.747 45.4361C61.585 45.8026 61.5041 46.233 61.5041 46.7273C61.5041 47.233 61.5836 47.6733 61.7427 48.0483C61.9047 48.4233 62.1319 48.7145 62.4245 48.9219C62.72 49.1293 63.0666 49.233 63.4643 49.233C63.7257 49.233 63.9629 49.1875 64.176 49.0966C64.389 49.0057 64.5694 48.875 64.7172 48.7045C64.8649 48.5341 64.97 48.3295 65.0325 48.0909H66.0382C65.9814 48.4773 65.8407 48.8253 65.6163 49.1349C65.3947 49.4418 65.1007 49.6861 64.7342 49.8679C64.3706 50.0469 63.9473 50.1364 63.4643 50.1364ZM69.4345 50.1534C69.0197 50.1534 68.6433 50.0753 68.3052 49.919C67.9672 49.7599 67.6987 49.5312 67.4998 49.233C67.301 48.9318 67.2015 48.5682 67.2015 48.142C67.2015 47.767 67.2754 47.4631 67.4231 47.2301C67.5708 46.9943 67.7683 46.8097 68.0154 46.6761C68.2626 46.5426 68.5353 46.4432 68.8336 46.3778C69.1348 46.3097 69.4373 46.2557 69.7413 46.2159C70.139 46.1648 70.4615 46.1264 70.7086 46.1009C70.9586 46.0724 71.1404 46.0256 71.2541 45.9602C71.3706 45.8949 71.4288 45.7812 71.4288 45.6193V45.5852C71.4288 45.1648 71.3137 44.8381 71.0836 44.6051C70.8564 44.3722 70.5112 44.2557 70.0481 44.2557C69.568 44.2557 69.1916 44.3608 68.9189 44.571C68.6461 44.7812 68.4544 45.0057 68.3436 45.2443L67.389 44.9034C67.5595 44.5057 67.7868 44.196 68.0708 43.9744C68.3578 43.75 68.6703 43.5937 69.0083 43.5057C69.3493 43.4148 69.6845 43.3693 70.014 43.3693C70.2243 43.3693 70.4657 43.3949 70.7385 43.446C71.014 43.4943 71.2797 43.5952 71.5353 43.7486C71.7939 43.902 72.0083 44.1335 72.1788 44.4432C72.3493 44.7528 72.4345 45.1676 72.4345 45.6875V50H71.4288V49.1136H71.3777C71.3095 49.2557 71.1958 49.4077 71.0368 49.5696C70.8777 49.7315 70.666 49.8693 70.4018 49.983C70.1376 50.0966 69.8152 50.1534 69.4345 50.1534ZM69.5879 49.25C69.9856 49.25 70.3208 49.1719 70.5936 49.0156C70.8691 48.8594 71.0765 48.6577 71.2157 48.4105C71.3578 48.1634 71.4288 47.9034 71.4288 47.6307V46.7102C71.3862 46.7614 71.2924 46.8082 71.1475 46.8509C71.0055 46.8906 70.8407 46.9261 70.6532 46.9574C70.4686 46.9858 70.2882 47.0114 70.112 47.0341C69.9387 47.054 69.7981 47.071 69.6902 47.0852C69.4288 47.1193 69.1845 47.1747 68.9572 47.2514C68.7328 47.3253 68.551 47.4375 68.4118 47.5881C68.2754 47.7358 68.2072 47.9375 68.2072 48.1932C68.2072 48.5426 68.3365 48.8068 68.595 48.9858C68.8564 49.1619 69.1873 49.25 69.5879 49.25ZM75.2757 41.2727V50H74.2701V41.2727H75.2757Z" fill="#1A1B1F"/>
</svg>
