<svg width="100" height="64" viewBox="0 0 100 64" fill="none" xmlns="http://www.w3.org/2000/svg">
<rect x="0.5" y="0.5" width="99" height="63" rx="7.5" fill="white"/>
<rect x="0.5" y="0.5" width="99" height="63" rx="7.5" stroke="#F1F1F1"/>
<g clip-path="url(#clip0_3492_70698)">
<path d="M64.0323 31.2473V26.8387C64.0323 26.2087 63.6263 25.6765 63.0645 25.4761V24.9032C63.0645 24.1029 62.4132 23.4516 61.6129 23.4516H56.2013C56.001 22.8898 55.4687 22.4839 54.8387 22.4839V16.4292C54.8387 15.2147 54.1835 14.0873 53.1282 13.4863L43.8529 8.20194C43.4319 7.48677 42.6626 7 41.7742 7C40.446 7 39.3655 8.0771 39.3563 9.40339H39.3548L38.885 23.499C37.7755 23.7187 36.9355 24.6981 36.9355 25.871C36.9355 26.3911 37.1039 26.8702 37.3845 27.2655L36.0079 28.871C35.3578 29.6297 35.0003 30.5959 35 31.5952C35 32.7139 35.4355 33.7648 36.2261 34.5555L37.6782 36.0076C38.3179 36.6473 39.1685 37 40.0734 37H45.1613V36.0323H44.1935V33.3806L42.5315 32.051C42.0268 31.6474 41.7098 31.0716 41.6382 30.429L41.2913 27.3066C41.5908 26.9035 41.7742 26.41 41.7742 25.871C41.7742 25.121 41.4239 24.4581 40.8863 24.0139L43.1358 11.4168C43.221 11.3582 43.2969 11.2885 43.3744 11.2198L48.3389 16.1844C48.1685 16.4723 48.0645 16.8032 48.0645 17.1613C48.0645 18.0603 48.6839 18.8118 49.5161 19.0281V22.4839H49.3419C48.6524 22.4839 48.0534 22.9745 47.9184 23.6505L46.6226 30.131L46.6158 31.2444C46.0163 31.8555 45.6452 32.6911 45.6452 33.6129C45.6452 35.4802 47.1645 37 49.0323 37H61.6129C63.4806 37 65 35.4802 65 33.6129C65 32.6926 64.6298 31.8579 64.0323 31.2473ZM39.3548 24.4194C40.1552 24.4194 40.8065 25.0706 40.8065 25.871C40.8065 26.6713 40.1552 27.3226 39.3548 27.3226C38.5545 27.3226 37.9032 26.6713 37.9032 25.871C37.9032 25.0706 38.5545 24.4194 39.3548 24.4194ZM41.9271 32.8068L43.2258 33.8452V34.0968H42.2581V35.0645H43.2258V36.0323H40.0734C39.4269 36.0323 38.8192 35.7802 38.3624 35.3234L36.9103 33.8713C36.3026 33.2635 35.9677 32.455 35.9677 31.5952C35.968 30.8268 36.2429 30.0839 36.7429 29.5005L38.0934 27.9255C38.4616 28.1524 38.8913 28.2903 39.3548 28.2903C39.7308 28.2903 40.0821 28.1969 40.4 28.0431L40.6768 30.5355C40.7765 31.435 41.2206 32.2416 41.9271 32.8068ZM39.9873 23.546C39.9418 23.5334 39.8997 23.514 39.8537 23.5044L40.2606 11.291C40.6763 11.6282 41.1984 11.8387 41.7742 11.8387C41.8802 11.8387 41.9808 11.8208 42.0834 11.8073L39.9873 23.546ZM41.7742 10.871C40.9739 10.871 40.3226 10.2197 40.3226 9.41935C40.3226 8.61903 40.9739 7.96774 41.7742 7.96774C42.5745 7.96774 43.2258 8.61903 43.2258 9.41935C43.2258 10.2197 42.5745 10.871 41.7742 10.871ZM56.2903 26.3548H57.2581V25.3871H56.2903V24.4194H61.6129C61.8795 24.4194 62.0968 24.6361 62.0968 24.9032V25.3871H58.2258V26.3548H62.5806C62.8473 26.3548 63.0645 26.5716 63.0645 26.8387V30.5573C62.6237 30.3473 62.1331 30.2258 61.6129 30.2258H56.2903V26.3548ZM43.9608 10.4379C44.0975 10.1452 44.1737 9.82787 44.1848 9.505L52.6492 14.3273C53.4031 14.7565 53.871 15.5621 53.871 16.4292V22.4839H50.4839V19.0281C51.3161 18.8118 51.9355 18.0603 51.9355 17.1613C51.9355 16.0939 51.0674 15.2258 50 15.2258C49.6419 15.2258 49.311 15.3298 49.0231 15.5002L43.9608 10.4379ZM49.0323 17.1613C49.0323 16.6276 49.4663 16.1935 50 16.1935C50.5337 16.1935 50.9677 16.6276 50.9677 17.1613C50.9677 17.695 50.5337 18.129 50 18.129C49.4663 18.129 49.0323 17.695 49.0323 17.1613ZM47.5806 30.2737L48.8673 23.8406C48.9123 23.6152 49.1121 23.4516 49.3419 23.4516H54.8387C55.1053 23.4516 55.3226 23.6684 55.3226 23.9355V30.2258H49.0323C48.5121 30.2258 48.0215 30.3473 47.5806 30.5573V30.2737ZM61.6129 36.0323H49.0323C47.6982 36.0323 46.6129 34.9469 46.6129 33.6129C46.6129 32.2789 47.6982 31.1935 49.0323 31.1935H61.6129C62.9469 31.1935 64.0323 32.2789 64.0323 33.6129C64.0323 34.9469 62.9469 36.0323 61.6129 36.0323Z" fill="#41479B"/>
<path d="M61.1285 31.677C60.5478 31.677 60.032 31.9393 59.6769 32.3457C59.3217 31.9393 58.8059 31.677 58.2252 31.677C57.6446 31.677 57.1288 31.9393 56.7736 32.3457C56.4185 31.9393 55.9027 31.677 55.322 31.677C54.7414 31.677 54.2256 31.9393 53.8704 32.3457C53.5152 31.9393 52.9994 31.677 52.4188 31.677C51.8381 31.677 51.3223 31.9393 50.9672 32.3457C50.612 31.9393 50.0962 31.677 49.5156 31.677C48.4481 31.677 47.5801 32.5451 47.5801 33.6125C47.5801 34.6799 48.4481 35.548 49.5156 35.548C50.0962 35.548 50.612 35.2857 50.9672 34.8793C51.3223 35.2857 51.8381 35.548 52.4188 35.548C52.9994 35.548 53.5152 35.2857 53.8704 34.8793C54.2256 35.2857 54.7414 35.548 55.322 35.548C55.9027 35.548 56.4185 35.2857 56.7736 34.8793C57.1288 35.2857 57.6446 35.548 58.2252 35.548C58.8059 35.548 59.3217 35.2857 59.6769 34.8793C60.032 35.2857 60.5478 35.548 61.1285 35.548C62.1959 35.548 63.0639 34.6799 63.0639 33.6125C63.0639 32.5451 62.1959 31.677 61.1285 31.677ZM49.5156 34.5802C48.9819 34.5802 48.5478 34.1462 48.5478 33.6125C48.5478 33.0788 48.9819 32.6448 49.5156 32.6448C50.0493 32.6448 50.4833 33.0788 50.4833 33.6125C50.4833 34.1462 50.0493 34.5802 49.5156 34.5802ZM52.4188 34.5802C51.8851 34.5802 51.451 34.1462 51.451 33.6125C51.451 33.0788 51.8851 32.6448 52.4188 32.6448C52.9525 32.6448 53.3865 33.0788 53.3865 33.6125C53.3865 34.1462 52.9525 34.5802 52.4188 34.5802ZM55.322 34.5802C54.7883 34.5802 54.3543 34.1462 54.3543 33.6125C54.3543 33.0788 54.7883 32.6448 55.322 32.6448C55.8557 32.6448 56.2898 33.0788 56.2898 33.6125C56.2898 34.1462 55.8557 34.5802 55.322 34.5802ZM58.2252 34.5802C57.6915 34.5802 57.2575 34.1462 57.2575 33.6125C57.2575 33.0788 57.6915 32.6448 58.2252 32.6448C58.7589 32.6448 59.193 33.0788 59.193 33.6125C59.193 34.1462 58.7589 34.5802 58.2252 34.5802ZM61.1285 34.5802C60.5948 34.5802 60.1607 34.1462 60.1607 33.6125C60.1607 33.0788 60.5948 32.6448 61.1285 32.6448C61.6622 32.6448 62.0962 33.0788 62.0962 33.6125C62.0962 34.1462 61.6622 34.5802 61.1285 34.5802ZM54.8381 24.4189H49.6027L49.0409 27.2273L49.0317 28.2899H54.8381V24.4189ZM53.8704 27.3222H50.0091L50.3962 25.3867H53.8704V27.3222ZM60.1607 27.3222H62.0962V28.2899H60.1607V27.3222ZM57.2575 27.3222H59.193V28.2899H57.2575V27.3222Z" fill="#41479B"/>
</g>
<path d="M21.5463 44H20.4895C20.427 43.696 20.3176 43.429 20.1614 43.1989C20.008 42.9688 19.8205 42.7756 19.5989 42.6193C19.3801 42.4602 19.1373 42.3409 18.8702 42.2614C18.6032 42.1818 18.3248 42.142 18.035 42.142C17.5066 42.142 17.0279 42.2756 16.5989 42.5426C16.1728 42.8097 15.8333 43.2031 15.5804 43.723C15.3304 44.2429 15.2054 44.8807 15.2054 45.6364C15.2054 46.392 15.3304 47.0298 15.5804 47.5497C15.8333 48.0696 16.1728 48.4631 16.5989 48.7301C17.0279 48.9972 17.5066 49.1307 18.035 49.1307C18.3248 49.1307 18.6032 49.0909 18.8702 49.0114C19.1373 48.9318 19.3801 48.8139 19.5989 48.6577C19.8205 48.4986 20.008 48.304 20.1614 48.0739C20.3176 47.8409 20.427 47.5739 20.4895 47.2727H21.5463C21.4668 47.7187 21.3219 48.1179 21.1117 48.4702C20.9015 48.8224 20.6401 49.1222 20.3276 49.3693C20.0151 49.6136 19.6642 49.7997 19.275 49.9276C18.8887 50.0554 18.4753 50.1193 18.035 50.1193C17.2907 50.1193 16.6287 49.9375 16.0492 49.5739C15.4696 49.2102 15.0137 48.6932 14.6813 48.0227C14.3489 47.3523 14.1827 46.5568 14.1827 45.6364C14.1827 44.7159 14.3489 43.9205 14.6813 43.25C15.0137 42.5795 15.4696 42.0625 16.0492 41.6989C16.6287 41.3352 17.2907 41.1534 18.035 41.1534C18.4753 41.1534 18.8887 41.2173 19.275 41.3452C19.6642 41.473 20.0151 41.6605 20.3276 41.9077C20.6401 42.152 20.9015 42.4503 21.1117 42.8026C21.3219 43.152 21.4668 43.5511 21.5463 44ZM25.7768 50.1364C25.1859 50.1364 24.6674 49.9957 24.2214 49.7145C23.7782 49.4332 23.4316 49.0398 23.1816 48.5341C22.9345 48.0284 22.8109 47.4375 22.8109 46.7614C22.8109 46.0795 22.9345 45.4844 23.1816 44.9759C23.4316 44.4673 23.7782 44.0724 24.2214 43.7912C24.6674 43.5099 25.1859 43.3693 25.7768 43.3693C26.3677 43.3693 26.8848 43.5099 27.3279 43.7912C27.774 44.0724 28.1206 44.4673 28.3677 44.9759C28.6177 45.4844 28.7427 46.0795 28.7427 46.7614C28.7427 47.4375 28.6177 48.0284 28.3677 48.5341C28.1206 49.0398 27.774 49.4332 27.3279 49.7145C26.8848 49.9957 26.3677 50.1364 25.7768 50.1364ZM25.7768 49.233C26.2257 49.233 26.595 49.1179 26.8848 48.8878C27.1745 48.6577 27.389 48.3551 27.5282 47.9801C27.6674 47.6051 27.737 47.1989 27.737 46.7614C27.737 46.3239 27.6674 45.9162 27.5282 45.5384C27.389 45.1605 27.1745 44.8551 26.8848 44.6222C26.595 44.3892 26.2257 44.2727 25.7768 44.2727C25.3279 44.2727 24.9586 44.3892 24.6689 44.6222C24.3791 44.8551 24.1646 45.1605 24.0254 45.5384C23.8862 45.9162 23.8166 46.3239 23.8166 46.7614C23.8166 47.1989 23.8862 47.6051 24.0254 47.9801C24.1646 48.3551 24.3791 48.6577 24.6689 48.8878C24.9586 49.1179 25.3279 49.233 25.7768 49.233ZM31.2836 46.0625V50H30.2779V43.4545H31.2495V44.4773H31.3347C31.4881 44.1449 31.7211 43.8778 32.0336 43.6761C32.3461 43.4716 32.7495 43.3693 33.2438 43.3693C33.687 43.3693 34.0748 43.4602 34.4071 43.642C34.7395 43.821 34.998 44.0938 35.1827 44.4602C35.3674 44.8239 35.4597 45.2841 35.4597 45.8409V50H34.454V45.9091C34.454 45.3949 34.3205 44.9943 34.0534 44.7074C33.7864 44.4176 33.4199 44.2727 32.954 44.2727C32.633 44.2727 32.3461 44.3423 32.0932 44.4815C31.8432 44.6207 31.6458 44.8239 31.5009 45.0909C31.356 45.358 31.2836 45.6818 31.2836 46.0625ZM41.9338 44.9205L41.0304 45.1761C40.9735 45.0256 40.8897 44.8793 40.7789 44.7372C40.671 44.5923 40.5233 44.473 40.3358 44.3793C40.1483 44.2855 39.9082 44.2386 39.6156 44.2386C39.215 44.2386 38.8812 44.331 38.6142 44.5156C38.35 44.6974 38.2179 44.929 38.2179 45.2102C38.2179 45.4602 38.3088 45.6577 38.4906 45.8026C38.6724 45.9474 38.9565 46.0682 39.3429 46.1648L40.3145 46.4034C40.8997 46.5455 41.3358 46.7628 41.6227 47.0554C41.9096 47.3452 42.0531 47.7187 42.0531 48.1761C42.0531 48.5511 41.9451 48.8864 41.7292 49.1818C41.5162 49.4773 41.2179 49.7102 40.8343 49.8807C40.4508 50.0511 40.0048 50.1364 39.4963 50.1364C38.8287 50.1364 38.2761 49.9915 37.8386 49.7017C37.4011 49.4119 37.1241 48.9886 37.0076 48.4318L37.9622 48.1932C38.0531 48.5455 38.225 48.8097 38.4778 48.9858C38.7335 49.1619 39.0673 49.25 39.4792 49.25C39.948 49.25 40.3201 49.1506 40.5957 48.9517C40.8741 48.75 41.0133 48.5085 41.0133 48.2273C41.0133 48 40.9338 47.8097 40.7747 47.6562C40.6156 47.5 40.3713 47.3835 40.0417 47.3068L38.9508 47.0511C38.3514 46.9091 37.911 46.6889 37.6298 46.3906C37.3514 46.0895 37.2122 45.7131 37.2122 45.2614C37.2122 44.892 37.3159 44.5653 37.5233 44.2812C37.7335 43.9972 38.019 43.7741 38.3798 43.6122C38.7434 43.4503 39.1554 43.3693 39.6156 43.3693C40.2633 43.3693 40.7718 43.5114 41.1412 43.7955C41.5133 44.0795 41.7775 44.4545 41.9338 44.9205ZM46.4135 43.4545V44.3068H43.0215V43.4545H46.4135ZM44.0101 41.8864H45.0158V48.125C45.0158 48.4091 45.057 48.6222 45.1394 48.7642C45.2246 48.9034 45.3326 48.9972 45.4632 49.0455C45.5968 49.0909 45.7374 49.1136 45.8851 49.1136C45.9959 49.1136 46.0868 49.108 46.1578 49.0966C46.2289 49.0824 46.2857 49.071 46.3283 49.0625L46.5328 49.9659C46.4647 49.9915 46.3695 50.017 46.2473 50.0426C46.1252 50.071 45.9703 50.0852 45.7828 50.0852C45.4988 50.0852 45.2203 50.0241 44.9476 49.902C44.6777 49.7798 44.4533 49.5938 44.2743 49.3438C44.0982 49.0938 44.0101 48.7784 44.0101 48.3977V41.8864ZM47.9263 50V43.4545H48.8979V44.4432H48.9661C49.0854 44.1193 49.3013 43.8565 49.6138 43.6548C49.9263 43.4531 50.2786 43.3523 50.6706 43.3523C50.7445 43.3523 50.8368 43.3537 50.9476 43.3565C51.0584 43.3594 51.1422 43.3636 51.199 43.3693V44.392C51.165 44.3835 51.0868 44.3707 50.9647 44.3537C50.8453 44.3338 50.7189 44.3239 50.5854 44.3239C50.2672 44.3239 49.9831 44.3906 49.7331 44.5241C49.486 44.6548 49.29 44.8366 49.1451 45.0696C49.003 45.2997 48.932 45.5625 48.932 45.858V50H47.9263ZM56.5162 47.3239V43.4545H57.5218V50H56.5162V48.892H56.448C56.2946 49.2244 56.0559 49.5071 55.7321 49.7401C55.4082 49.9702 54.9991 50.0852 54.5048 50.0852C54.0957 50.0852 53.7321 49.9957 53.4139 49.8168C53.0957 49.6349 52.8457 49.3622 52.6639 48.9986C52.4821 48.6321 52.3912 48.1705 52.3912 47.6136V43.4545H53.3968V47.5455C53.3968 48.0227 53.5304 48.4034 53.7974 48.6875C54.0673 48.9716 54.411 49.1136 54.8287 49.1136C55.0787 49.1136 55.3329 49.0497 55.5914 48.9219C55.8528 48.794 56.0716 48.598 56.2477 48.3338C56.4267 48.0696 56.5162 47.733 56.5162 47.3239ZM62.0229 50.1364C61.4093 50.1364 60.8809 49.9915 60.4377 49.7017C59.9945 49.4119 59.6536 49.0128 59.415 48.5043C59.1763 47.9957 59.057 47.4148 59.057 46.7614C59.057 46.0966 59.1792 45.5099 59.4235 45.0014C59.6706 44.4901 60.0144 44.0909 60.4547 43.804C60.8979 43.5142 61.415 43.3693 62.0059 43.3693C62.4661 43.3693 62.8809 43.4545 63.2502 43.625C63.6195 43.7955 63.9221 44.0341 64.1578 44.3409C64.3936 44.6477 64.54 45.0057 64.5968 45.4148H63.5911C63.5144 45.1165 63.3439 44.8523 63.0797 44.6222C62.8184 44.3892 62.4661 44.2727 62.0229 44.2727C61.6309 44.2727 61.2871 44.375 60.9917 44.5795C60.699 44.7812 60.4703 45.0668 60.3056 45.4361C60.1436 45.8026 60.0627 46.233 60.0627 46.7273C60.0627 47.233 60.1422 47.6733 60.3013 48.0483C60.4632 48.4233 60.6905 48.7145 60.9831 48.9219C61.2786 49.1293 61.6252 49.233 62.0229 49.233C62.2843 49.233 62.5215 49.1875 62.7346 49.0966C62.9476 49.0057 63.128 48.875 63.2757 48.7045C63.4235 48.5341 63.5286 48.3295 63.5911 48.0909H64.5968C64.54 48.4773 64.3993 48.8253 64.1749 49.1349C63.9533 49.4418 63.6593 49.6861 63.2928 49.8679C62.9292 50.0469 62.5059 50.1364 62.0229 50.1364ZM68.9135 43.4545V44.3068H65.5215V43.4545H68.9135ZM66.5101 41.8864H67.5158V48.125C67.5158 48.4091 67.557 48.6222 67.6394 48.7642C67.7246 48.9034 67.8326 48.9972 67.9632 49.0455C68.0968 49.0909 68.2374 49.1136 68.3851 49.1136C68.4959 49.1136 68.5868 49.108 68.6578 49.0966C68.7289 49.0824 68.7857 49.071 68.8283 49.0625L69.0328 49.9659C68.9647 49.9915 68.8695 50.017 68.7473 50.0426C68.6252 50.071 68.4703 50.0852 68.2828 50.0852C67.9988 50.0852 67.7203 50.0241 67.4476 49.902C67.1777 49.7798 66.9533 49.5938 66.7743 49.3438C66.5982 49.0938 66.5101 48.7784 66.5101 48.3977V41.8864ZM70.4263 50V43.4545H71.432V50H70.4263ZM70.9377 42.3636C70.7417 42.3636 70.5726 42.2969 70.4306 42.1634C70.2914 42.0298 70.2218 41.8693 70.2218 41.6818C70.2218 41.4943 70.2914 41.3338 70.4306 41.2003C70.5726 41.0668 70.7417 41 70.9377 41C71.1337 41 71.3013 41.0668 71.4405 41.2003C71.5826 41.3338 71.6536 41.4943 71.6536 41.6818C71.6536 41.8693 71.5826 42.0298 71.4405 42.1634C71.3013 42.2969 71.1337 42.3636 70.9377 42.3636ZM75.9331 50.1364C75.3422 50.1364 74.8237 49.9957 74.3777 49.7145C73.9345 49.4332 73.5879 49.0398 73.3379 48.5341C73.0907 48.0284 72.9672 47.4375 72.9672 46.7614C72.9672 46.0795 73.0907 45.4844 73.3379 44.9759C73.5879 44.4673 73.9345 44.0724 74.3777 43.7912C74.8237 43.5099 75.3422 43.3693 75.9331 43.3693C76.524 43.3693 77.041 43.5099 77.4842 43.7912C77.9302 44.0724 78.2768 44.4673 78.524 44.9759C78.774 45.4844 78.899 46.0795 78.899 46.7614C78.899 47.4375 78.774 48.0284 78.524 48.5341C78.2768 49.0398 77.9302 49.4332 77.4842 49.7145C77.041 49.9957 76.524 50.1364 75.9331 50.1364ZM75.9331 49.233C76.3819 49.233 76.7512 49.1179 77.041 48.8878C77.3308 48.6577 77.5453 48.3551 77.6845 47.9801C77.8237 47.6051 77.8933 47.1989 77.8933 46.7614C77.8933 46.3239 77.8237 45.9162 77.6845 45.5384C77.5453 45.1605 77.3308 44.8551 77.041 44.6222C76.7512 44.3892 76.3819 44.2727 75.9331 44.2727C75.4842 44.2727 75.1149 44.3892 74.8251 44.6222C74.5353 44.8551 74.3208 45.1605 74.1816 45.5384C74.0424 45.9162 73.9728 46.3239 73.9728 46.7614C73.9728 47.1989 74.0424 47.6051 74.1816 47.9801C74.3208 48.3551 74.5353 48.6577 74.8251 48.8878C75.1149 49.1179 75.4842 49.233 75.9331 49.233ZM81.4398 46.0625V50H80.4341V43.4545H81.4057V44.4773H81.4909C81.6444 44.1449 81.8773 43.8778 82.1898 43.6761C82.5023 43.4716 82.9057 43.3693 83.4 43.3693C83.8432 43.3693 84.231 43.4602 84.5634 43.642C84.8958 43.821 85.1543 44.0938 85.339 44.4602C85.5236 44.8239 85.6159 45.2841 85.6159 45.8409V50H84.6103V45.9091C84.6103 45.3949 84.4767 44.9943 84.2097 44.7074C83.9426 44.4176 83.5762 44.2727 83.1103 44.2727C82.7892 44.2727 82.5023 44.3423 82.2495 44.4815C81.9995 44.6207 81.802 44.8239 81.6571 45.0909C81.5123 45.358 81.4398 45.6818 81.4398 46.0625Z" fill="#1A1B1F"/>
<defs>
<clipPath id="clip0_3492_70698">
<rect width="30" height="30" fill="white" transform="translate(35 7)"/>
</clipPath>
</defs>
</svg>
