<svg width="100" height="64" viewBox="0 0 100 64" fill="none" xmlns="http://www.w3.org/2000/svg">
<rect x="0.5" y="0.5" width="99" height="63" rx="7.5" fill="white"/>
<rect x="0.5" y="0.5" width="99" height="63" rx="7.5" stroke="#F1F1F1"/>
<path d="M64.3279 16.8101L52.8406 8.97027C52.7528 8.91031 52.6472 8.882 52.5412 8.89L38.6762 9.93648C38.4775 9.95113 38.3105 10.09 38.259 10.2822C38.2074 10.4744 38.283 10.6783 38.4471 10.7902L42.7104 13.7005L41.4424 18.4355H40.4879C39.0236 18.4355 37.8318 19.6267 37.8318 21.0916V24.5861C37.8318 25.2412 38.0709 25.8418 38.4658 26.3052H38.126C36.6605 26.3052 35.4688 27.4964 35.4688 28.9613V32.4541C35.4688 33.9195 36.6611 35.1119 38.126 35.1119H60.5035C60.7619 35.1119 60.9717 34.9021 60.9717 34.6437V32.7388C60.9717 32.4798 60.7619 32.2707 60.5035 32.2707H59.6533V29.1482H60.5035C60.7619 29.1482 60.9717 28.9384 60.9717 28.68V26.7752C60.9717 26.5162 60.7619 26.307 60.5035 26.307H56.5092V24.8703C56.5092 24.6113 56.2994 24.4021 56.041 24.4021H55.1926V23.5654L57.1555 23.4828C57.2552 23.4785 57.3509 23.4426 57.4288 23.3802C57.5066 23.3178 57.5626 23.2323 57.5885 23.1359L58.949 18.0541L64.0988 17.6656C64.2975 17.6509 64.4645 17.5121 64.516 17.3199C64.5676 17.1277 64.492 16.9238 64.3273 16.8119L64.3279 16.8101ZM58.7176 30.2404H45.96C45.701 30.2404 45.4918 30.4502 45.4918 30.7086C45.4918 30.967 45.7016 31.1767 45.96 31.1767H58.7176V32.2695H38.3111V29.147H58.717V30.2398L58.7176 30.2404ZM60.0365 28.2107H38.1465C37.7275 28.2107 37.3742 28.5546 37.3742 28.9613V32.4541C37.3742 32.8619 37.7281 33.2064 38.1465 33.2064H60.0359V34.175H38.1266C37.1779 34.175 36.4057 33.4033 36.4057 32.4541V28.9613C36.4057 28.0132 37.1773 27.2421 38.1266 27.2421H60.0359V28.2101L60.0365 28.2107ZM55.5734 26.3058H40.4885C39.5404 26.3058 38.7693 25.5347 38.7693 24.5867V21.0921C38.7693 20.1441 39.5404 19.373 40.4885 19.373H41.6662L43.1914 20.3416H40.5084C40.0895 20.3416 39.7361 20.6855 39.7361 21.0921V24.5867C39.7361 24.9939 40.09 25.3373 40.5084 25.3373H55.5729V26.3058H55.5734ZM54.2563 24.4009H40.673V21.2785H44.6674L48.5738 23.7582C48.6488 23.8056 48.7361 23.8314 48.8246 23.8314H48.8439L54.2557 23.6041V24.4015L54.2563 24.4009ZM56.7729 22.5605L48.9523 22.8886L45.0664 20.4218C45.0664 20.4218 45.0646 20.4207 45.0641 20.4207L42.3441 18.6939L43.5312 14.2613L49.9332 18.6312C50.0111 18.6845 50.1031 18.7127 50.1975 18.7127C50.2092 18.7127 50.2209 18.7127 50.2326 18.7115L54.1801 18.4138L53.5748 20.6732C53.508 20.9228 53.6562 21.18 53.9059 21.2468C54.0259 21.2787 54.1537 21.2617 54.2612 21.1996C54.3687 21.1374 54.4472 21.0351 54.4795 20.9152L55.1697 18.3388L57.96 18.1285L56.7729 22.5611V22.5605ZM55.0748 17.406L51.7443 13.4972C51.5768 13.3004 51.2809 13.2769 51.084 13.4445C50.8871 13.6121 50.8637 13.908 51.0312 14.1048L53.9188 17.4933L50.3258 17.7646L40.0789 10.7703L52.448 9.83687L62.6955 16.8306L55.0742 17.4054L55.0748 17.406Z" fill="#41479B"/>
<path d="M22.8322 50V41.2727H28.0993V42.2102H23.889V45.1591H27.8265V46.0966H23.889V49.0625H28.1674V50H22.8322ZM32.3393 50.1364C31.7939 50.1364 31.3123 49.9986 30.8947 49.723C30.4771 49.4446 30.1504 49.0526 29.9146 48.5469C29.6788 48.0384 29.5609 47.4375 29.5609 46.7443C29.5609 46.0568 29.6788 45.4602 29.9146 44.9545C30.1504 44.4489 30.4785 44.0582 30.899 43.7827C31.3194 43.5071 31.8052 43.3693 32.3564 43.3693C32.7825 43.3693 33.1191 43.4403 33.3663 43.5824C33.6163 43.7216 33.8066 43.8807 33.9373 44.0597C34.0708 44.2358 34.1745 44.3807 34.2484 44.4943H34.3336V41.2727H35.3393V50H34.3677V48.9943H34.2484C34.1745 49.1136 34.0694 49.2642 33.9331 49.446C33.7967 49.625 33.6021 49.7855 33.3493 49.9276C33.0964 50.0668 32.7598 50.1364 32.3393 50.1364ZM32.4757 49.233C32.8791 49.233 33.22 49.1278 33.4984 48.9176C33.7768 48.7045 33.9885 48.4105 34.1333 48.0355C34.2782 47.6577 34.3507 47.2216 34.3507 46.7273C34.3507 46.2386 34.2797 45.8111 34.1376 45.4446C33.9956 45.0753 33.7853 44.7884 33.5069 44.5838C33.2285 44.3764 32.8848 44.2727 32.4757 44.2727C32.0495 44.2727 31.6944 44.3821 31.4103 44.6009C31.1291 44.8168 30.9174 45.1108 30.7754 45.483C30.6362 45.8523 30.5666 46.267 30.5666 46.7273C30.5666 47.1932 30.6376 47.6165 30.7797 47.9972C30.9245 48.375 31.1376 48.6761 31.4189 48.9006C31.7029 49.1222 32.0552 49.233 32.4757 49.233ZM41.4458 47.3239V43.4545H42.4515V50H41.4458V48.892H41.3777C41.2243 49.2244 40.9856 49.5071 40.6618 49.7401C40.3379 49.9702 39.9288 50.0852 39.4345 50.0852C39.0254 50.0852 38.6618 49.9957 38.3436 49.8168C38.0254 49.6349 37.7754 49.3622 37.5936 48.9986C37.4118 48.6321 37.3208 48.1705 37.3208 47.6136V43.4545H38.3265V47.5455C38.3265 48.0227 38.46 48.4034 38.7271 48.6875C38.997 48.9716 39.3407 49.1136 39.7583 49.1136C40.0083 49.1136 40.2626 49.0497 40.5211 48.9219C40.7825 48.794 41.0012 48.598 41.1774 48.3338C41.3564 48.0696 41.4458 47.733 41.4458 47.3239ZM46.9526 50.1364C46.339 50.1364 45.8105 49.9915 45.3674 49.7017C44.9242 49.4119 44.5833 49.0128 44.3446 48.5043C44.106 47.9957 43.9867 47.4148 43.9867 46.7614C43.9867 46.0966 44.1088 45.5099 44.3532 45.0014C44.6003 44.4901 44.9441 44.0909 45.3844 43.804C45.8276 43.5142 46.3446 43.3693 46.9355 43.3693C47.3958 43.3693 47.8105 43.4545 48.1799 43.625C48.5492 43.7955 48.8517 44.0341 49.0875 44.3409C49.3233 44.6477 49.4696 45.0057 49.5265 45.4148H48.5208C48.4441 45.1165 48.2736 44.8523 48.0094 44.6222C47.748 44.3892 47.3958 44.2727 46.9526 44.2727C46.5605 44.2727 46.2168 44.375 45.9213 44.5795C45.6287 44.7812 45.4 45.0668 45.2353 45.4361C45.0733 45.8026 44.9924 46.233 44.9924 46.7273C44.9924 47.233 45.0719 47.6733 45.231 48.0483C45.3929 48.4233 45.6202 48.7145 45.9128 48.9219C46.2083 49.1293 46.5549 49.233 46.9526 49.233C47.214 49.233 47.4512 49.1875 47.6642 49.0966C47.8773 49.0057 48.0577 48.875 48.2054 48.7045C48.3532 48.5341 48.4583 48.3295 48.5208 48.0909H49.5265C49.4696 48.4773 49.329 48.8253 49.1046 49.1349C48.883 49.4418 48.589 49.6861 48.2225 49.8679C47.8588 50.0469 47.4355 50.1364 46.9526 50.1364ZM52.9228 50.1534C52.508 50.1534 52.1316 50.0753 51.7935 49.919C51.4554 49.7599 51.187 49.5312 50.9881 49.233C50.7892 48.9318 50.6898 48.5682 50.6898 48.142C50.6898 47.767 50.7637 47.4631 50.9114 47.2301C51.0591 46.9943 51.2566 46.8097 51.5037 46.6761C51.7509 46.5426 52.0236 46.4432 52.3219 46.3778C52.623 46.3097 52.9256 46.2557 53.2296 46.2159C53.6273 46.1648 53.9498 46.1264 54.1969 46.1009C54.4469 46.0724 54.6287 46.0256 54.7424 45.9602C54.8588 45.8949 54.9171 45.7812 54.9171 45.6193V45.5852C54.9171 45.1648 54.802 44.8381 54.5719 44.6051C54.3446 44.3722 53.9995 44.2557 53.5364 44.2557C53.0563 44.2557 52.6799 44.3608 52.4071 44.571C52.1344 44.7812 51.9426 45.0057 51.8319 45.2443L50.8773 44.9034C51.0478 44.5057 51.275 44.196 51.5591 43.9744C51.8461 43.75 52.1586 43.5937 52.4966 43.5057C52.8375 43.4148 53.1728 43.3693 53.5023 43.3693C53.7125 43.3693 53.954 43.3949 54.2267 43.446C54.5023 43.4943 54.7679 43.5952 55.0236 43.7486C55.2821 43.902 55.4966 44.1335 55.6671 44.4432C55.8375 44.7528 55.9228 45.1676 55.9228 45.6875V50H54.9171V49.1136H54.8659C54.7978 49.2557 54.6841 49.4077 54.525 49.5696C54.3659 49.7315 54.1543 49.8693 53.8901 49.983C53.6259 50.0966 53.3034 50.1534 52.9228 50.1534ZM53.0762 49.25C53.4739 49.25 53.8091 49.1719 54.0819 49.0156C54.3574 48.8594 54.5648 48.6577 54.704 48.4105C54.8461 48.1634 54.9171 47.9034 54.9171 47.6307V46.7102C54.8745 46.7614 54.7807 46.8082 54.6358 46.8509C54.4938 46.8906 54.329 46.9261 54.1415 46.9574C53.9569 46.9858 53.7765 47.0114 53.6003 47.0341C53.427 47.054 53.2864 47.071 53.1784 47.0852C52.9171 47.1193 52.6728 47.1747 52.4455 47.2514C52.2211 47.3253 52.0392 47.4375 51.9 47.5881C51.7637 47.7358 51.6955 47.9375 51.6955 48.1932C51.6955 48.5426 51.8248 48.8068 52.0833 48.9858C52.3446 49.1619 52.6756 49.25 53.0762 49.25ZM60.6049 43.4545V44.3068H57.2129V43.4545H60.6049ZM58.2015 41.8864H59.2072V48.125C59.2072 48.4091 59.2484 48.6222 59.3308 48.7642C59.416 48.9034 59.524 48.9972 59.6547 49.0455C59.7882 49.0909 59.9288 49.1136 60.0765 49.1136C60.1873 49.1136 60.2782 49.108 60.3493 49.0966C60.4203 49.0824 60.4771 49.071 60.5197 49.0625L60.7243 49.9659C60.6561 49.9915 60.5609 50.017 60.4387 50.0426C60.3166 50.071 60.1618 50.0852 59.9743 50.0852C59.6902 50.0852 59.4118 50.0241 59.139 49.902C58.8691 49.7798 58.6447 49.5938 58.4657 49.3438C58.2896 49.0938 58.2015 48.7784 58.2015 48.3977V41.8864ZM62.1177 50V43.4545H63.1234V50H62.1177ZM62.6291 42.3636C62.4331 42.3636 62.264 42.2969 62.122 42.1634C61.9828 42.0298 61.9132 41.8693 61.9132 41.6818C61.9132 41.4943 61.9828 41.3338 62.122 41.2003C62.264 41.0668 62.4331 41 62.6291 41C62.8251 41 62.9927 41.0668 63.1319 41.2003C63.274 41.3338 63.345 41.4943 63.345 41.6818C63.345 41.8693 63.274 42.0298 63.1319 42.1634C62.9927 42.2969 62.8251 42.3636 62.6291 42.3636ZM67.6245 50.1364C67.0336 50.1364 66.5151 49.9957 66.0691 49.7145C65.6259 49.4332 65.2793 49.0398 65.0293 48.5341C64.7821 48.0284 64.6586 47.4375 64.6586 46.7614C64.6586 46.0795 64.7821 45.4844 65.0293 44.9759C65.2793 44.4673 65.6259 44.0724 66.0691 43.7912C66.5151 43.5099 67.0336 43.3693 67.6245 43.3693C68.2154 43.3693 68.7324 43.5099 69.1756 43.7912C69.6216 44.0724 69.9682 44.4673 70.2154 44.9759C70.4654 45.4844 70.5904 46.0795 70.5904 46.7614C70.5904 47.4375 70.4654 48.0284 70.2154 48.5341C69.9682 49.0398 69.6216 49.4332 69.1756 49.7145C68.7324 49.9957 68.2154 50.1364 67.6245 50.1364ZM67.6245 49.233C68.0733 49.233 68.4426 49.1179 68.7324 48.8878C69.0222 48.6577 69.2367 48.3551 69.3759 47.9801C69.5151 47.6051 69.5847 47.1989 69.5847 46.7614C69.5847 46.3239 69.5151 45.9162 69.3759 45.5384C69.2367 45.1605 69.0222 44.8551 68.7324 44.6222C68.4426 44.3892 68.0733 44.2727 67.6245 44.2727C67.1756 44.2727 66.8063 44.3892 66.5165 44.6222C66.2267 44.8551 66.0123 45.1605 65.873 45.5384C65.7338 45.9162 65.6642 46.3239 65.6642 46.7614C65.6642 47.1989 65.7338 47.6051 65.873 47.9801C66.0123 48.3551 66.2267 48.6577 66.5165 48.8878C66.8063 49.1179 67.1756 49.233 67.6245 49.233ZM73.1312 46.0625V50H72.1255V43.4545H73.0971V44.4773H73.1824C73.3358 44.1449 73.5687 43.8778 73.8812 43.6761C74.1937 43.4716 74.5971 43.3693 75.0914 43.3693C75.5346 43.3693 75.9224 43.4602 76.2548 43.642C76.5872 43.821 76.8457 44.0938 77.0304 44.4602C77.215 44.8239 77.3074 45.2841 77.3074 45.8409V50H76.3017V45.9091C76.3017 45.3949 76.1681 44.9943 75.9011 44.7074C75.6341 44.4176 75.2676 44.2727 74.8017 44.2727C74.4806 44.2727 74.1937 44.3423 73.9409 44.4815C73.6909 44.6207 73.4934 44.8239 73.3485 45.0909C73.2037 45.358 73.1312 45.6818 73.1312 46.0625Z" fill="#1A1B1F"/>
</svg>
