<svg width="12" height="12" viewBox="0 0 12 12" fill="none" xmlns="http://www.w3.org/2000/svg">
<g clip-path="url(#clip0_3492_72413)">
<path fill-rule="evenodd" clip-rule="evenodd" d="M6 0C2.69063 0 0 2.69063 0 6C0 9.30937 2.69063 12 6 12C9.30937 12 12 9.30937 12 6C12 2.69063 9.30937 0 6 0Z" fill="#05AF00"/>
<path d="M4.84453 8.74531C4.07812 7.97891 3.31641 7.20547 2.54766 6.43906C2.46328 6.35469 2.46328 6.21406 2.54766 6.12969L3.43125 5.24609C3.51562 5.16172 3.65625 5.16172 3.74063 5.24609L5.00391 6.50938L8.25234 3.25859C8.33906 3.17422 8.47734 3.17422 8.56406 3.25859L9.45 4.14453C9.53672 4.23125 9.53672 4.36953 9.45 4.45391L5.15391 8.74531C5.06953 8.83203 4.93125 8.83203 4.84453 8.74531Z" fill="white"/>
</g>
<defs>
<clipPath id="clip0_3492_72413">
<rect width="12" height="12" fill="white"/>
</clipPath>
</defs>
</svg>
