<svg width="12" height="12" viewBox="0 0 12 12" fill="none" xmlns="http://www.w3.org/2000/svg">
<path d="M9.9235 3.55C9.5165 0.3 7.5045 0.008 7.4815 0.0055C7.4518 0.0019091 7.42192 7.2577e-05 7.392 0C6.88229 0.0217522 6.39037 0.193612 5.978 0.494C5.58297 0.19102 5.1035 0.018382 4.606 0C4.57642 8.63449e-05 4.54687 0.00192289 4.5175 0.0055C4.495 0.008 2.4835 0.3 2.0765 3.55C1.362 3.7815 0 4.354 0 5.357C0 7.3345 3.097 7.5 6 7.5C8.903 7.5 12 7.3345 12 5.357C12 4.354 10.638 3.7815 9.9235 3.55ZM3.5 5.168V4.75C3.5 2.2195 4.4215 1.6275 4.679 1.5115C4.81851 1.53878 4.94999 1.59742 5.0635 1.683C5.33214 1.88921 5.66134 2.001 6 2.001C6.33866 2.001 6.66786 1.88921 6.9365 1.683C7.04989 1.59775 7.18093 1.53898 7.32 1.511C7.576 1.626 8.5 2.217 8.5 4.75V5.168C7.68716 5.39926 6.84502 5.5111 6 5.5C5.15498 5.5111 4.31284 5.39926 3.5 5.168ZM10.5 10C10.5018 10.478 10.3318 10.9407 10.0211 11.3039C9.71039 11.6671 9.27956 11.9067 8.80706 11.979C8.33457 12.0512 7.85183 11.9514 7.44675 11.6977C7.04167 11.4439 6.74118 11.0532 6.6 10.5965C6.40397 10.5432 6.20285 10.5109 6 10.5C5.79715 10.5109 5.59603 10.5432 5.4 10.5965C5.26184 11.0389 4.97432 11.4196 4.58659 11.6735C4.19886 11.9274 3.73499 12.0387 3.27426 11.9885C2.81352 11.9383 2.38453 11.7296 2.06059 11.3982C1.73666 11.0667 1.53789 10.633 1.49826 10.1713C1.45863 9.70952 1.58061 9.24833 1.84333 8.86652C2.10606 8.48472 2.49323 8.20602 2.93867 8.07804C3.38411 7.95006 3.86017 7.98076 4.28549 8.16488C4.71081 8.349 5.05898 8.67512 5.2705 9.0875C5.51023 9.03461 5.75456 9.0053 6 9C6.24577 9.00524 6.49044 9.03454 6.7305 9.0875C6.93414 8.68807 7.26647 8.36895 7.67383 8.18167C8.08119 7.9944 8.53978 7.94992 8.97554 8.0554C9.4113 8.16089 9.79877 8.41019 10.0754 8.76303C10.352 9.11587 10.5016 9.55166 10.5 10Z" fill="black"/>
</svg>
