<svg width="12" height="12" viewBox="0 0 12 12" fill="none" xmlns="http://www.w3.org/2000/svg">
<g clip-path="url(#clip0_3492_70278)">
<path d="M11 2.82177V1.24977C11 1.05086 10.921 0.860095 10.7803 0.719443C10.6397 0.578791 10.4489 0.499773 10.25 0.499773C10.0511 0.499773 9.86032 0.578791 9.71967 0.719443C9.57902 0.860095 9.5 1.05086 9.5 1.24977V1.79427L7.538 0.470273C7.08436 0.161937 6.54851 -0.00292969 6 -0.00292969C5.45149 -0.00292969 4.91564 0.161937 4.462 0.470273L1.212 2.66327C0.838601 2.91477 0.532762 3.25421 0.321412 3.65171C0.110062 4.04921 -0.000314413 4.49258 6.72699e-07 4.94277V9.24977C6.72699e-07 10.7663 1.234 11.9998 2.75 11.9998H4.25C4.44891 11.9998 4.63968 11.9208 4.78033 11.7801C4.92098 11.6395 5 11.4487 5 11.2498V7.24977C5 7.18347 5.02634 7.11988 5.07322 7.073C5.12011 7.02611 5.1837 6.99977 5.25 6.99977H6.75C6.81631 6.99977 6.87989 7.02611 6.92678 7.073C6.97366 7.11988 7 7.18347 7 7.24977V11.2498C7 11.4487 7.07902 11.6395 7.21967 11.7801C7.36032 11.9208 7.55109 11.9998 7.75 11.9998H9.25C10.766 11.9998 12 10.7663 12 9.24977V4.94277C12.0004 4.53732 11.9109 4.13681 11.738 3.77007C11.5651 3.40333 11.313 3.07947 11 2.82177ZM10.5 9.24977C10.5 9.93877 9.9395 10.4998 9.25 10.4998H8.5V7.24977C8.5 6.28477 7.715 5.49977 6.75 5.49977H5.25C4.285 5.49977 3.5 6.28477 3.5 7.24977V10.4998H2.75C2.4186 10.4994 2.10089 10.3676 1.86656 10.1332C1.63222 9.89888 1.5004 9.58117 1.5 9.24977V4.94277C1.5 4.52627 1.706 4.13927 2.051 3.90627L5.301 1.71327C5.5073 1.57323 5.75091 1.49836 6.00025 1.49836C6.2496 1.49836 6.4932 1.57323 6.6995 1.71327L9.9495 3.90677C10.1192 4.02112 10.2582 4.17539 10.3542 4.35604C10.4503 4.53668 10.5005 4.73817 10.5005 4.94277L10.5 9.24977Z" fill="black"/>
</g>
<defs>
<clipPath id="clip0_3492_70278">
<rect width="12" height="12" fill="white"/>
</clipPath>
</defs>
</svg>
