<svg width="190" height="26" viewBox="0 0 190 26" fill="none" xmlns="http://www.w3.org/2000/svg">
<rect width="190" height="25" transform="translate(0 0.5)" fill="white"/>
<path d="M4.75599 8.76384C4.91223 8.93282 5 9.16199 5 9.40093C5 9.63988 4.91223 9.86904 4.75599 10.038L2.01163 13.0054L4.75599 15.9728C4.9078 16.1428 4.9918 16.3704 4.9899 16.6067C4.98801 16.843 4.90036 17.069 4.74584 17.2361C4.59132 17.4031 4.3823 17.4979 4.16378 17.5C3.94527 17.502 3.73476 17.4112 3.57758 17.247L0.244005 13.6425C0.0877679 13.4735 -6.84221e-07 13.2444 -6.73776e-07 13.0054C-6.63332e-07 12.7665 0.0877679 12.5373 0.244005 12.3683L3.57758 8.76384C3.73386 8.5949 3.9458 8.5 4.16679 8.5C4.38777 8.5 4.59971 8.5949 4.75599 8.76384Z" fill="#6B7280"/>
<path d="M29.5043 8.77273V17.5H27.6591V10.5241H27.608L25.6094 11.777V10.1406L27.7699 8.77273H29.5043Z" fill="#31394F"/>
<path d="M48.6495 17.5V16.733L51.5302 13.5795C51.8683 13.2102 52.1467 12.8892 52.3654 12.6165C52.5842 12.3409 52.7461 12.0824 52.8512 11.8409C52.9592 11.5966 53.0131 11.3409 53.0131 11.0739C53.0131 10.767 52.9393 10.5014 52.7915 10.277C52.6467 10.0526 52.4478 9.87926 52.195 9.7571C51.9421 9.63494 51.658 9.57386 51.3427 9.57386C51.0075 9.57386 50.7148 9.64347 50.4648 9.78267C50.2177 9.91903 50.0259 10.1108 49.8896 10.358C49.756 10.6051 49.6893 10.8949 49.6893 11.2273H48.6836C48.6836 10.7159 48.8015 10.267 49.0373 9.88068C49.2731 9.49432 49.5941 9.19318 50.0004 8.97727C50.4094 8.76136 50.8683 8.65341 51.3768 8.65341C51.8881 8.65341 52.3413 8.76136 52.7362 8.97727C53.131 9.19318 53.4407 9.48437 53.6651 9.85085C53.8896 10.2173 54.0018 10.625 54.0018 11.0739C54.0018 11.3949 53.9435 11.7088 53.8271 12.0156C53.7134 12.3196 53.5146 12.6591 53.2305 13.0341C52.9492 13.4062 52.5586 13.8608 52.0586 14.3977L50.0984 16.4943V16.5625H54.1552V17.5H48.6495ZM75.739 17.6193C75.1765 17.6193 74.6751 17.5227 74.2347 17.3295C73.7972 17.1364 73.4492 16.8679 73.1907 16.5241C72.935 16.1776 72.7958 15.7756 72.7731 15.3182H73.8469C73.8697 15.5994 73.9663 15.8423 74.1367 16.0469C74.3072 16.2486 74.5302 16.4048 74.8058 16.5156C75.0813 16.6264 75.3867 16.6818 75.7219 16.6818C76.0969 16.6818 76.4293 16.6165 76.7191 16.4858C77.0089 16.3551 77.2362 16.1733 77.4009 15.9403C77.5657 15.7074 77.6481 15.4375 77.6481 15.1307C77.6481 14.8097 77.5685 14.527 77.4094 14.2827C77.2504 14.0355 77.0174 13.8423 76.7106 13.7031C76.4038 13.5639 76.0288 13.4943 75.5856 13.4943H74.8867V12.5568H75.5856C75.9322 12.5568 76.2362 12.4943 76.4975 12.3693C76.7617 12.2443 76.9677 12.0682 77.1154 11.8409C77.266 11.6136 77.3413 11.3466 77.3413 11.0398C77.3413 10.7443 77.2759 10.4872 77.1452 10.2685C77.0146 10.0497 76.8299 9.87926 76.5913 9.7571C76.3555 9.63494 76.0771 9.57386 75.756 9.57386C75.4549 9.57386 75.1708 9.62926 74.9038 9.74006C74.6396 9.84801 74.4237 10.0057 74.256 10.2131C74.0884 10.4176 73.9975 10.6648 73.9833 10.9545H72.9606C72.9776 10.4972 73.1154 10.0966 73.3739 9.75284C73.6325 9.40625 73.9705 9.13636 74.3881 8.94318C74.8086 8.75 75.2702 8.65341 75.7731 8.65341C76.3129 8.65341 76.7759 8.76278 77.1623 8.98153C77.5487 9.19744 77.8455 9.48295 78.0529 9.83807C78.2603 10.1932 78.364 10.5767 78.364 10.9886C78.364 11.4801 78.2347 11.8991 77.9762 12.2457C77.7205 12.5923 77.3725 12.8324 76.9322 12.9659V13.0341C77.4833 13.125 77.9137 13.3594 78.2234 13.7372C78.533 14.1122 78.6879 14.5767 78.6879 15.1307C78.6879 15.6051 78.5586 16.0312 78.3001 16.4091C78.0444 16.7841 77.695 17.0795 77.2518 17.2955C76.8086 17.5114 76.3043 17.6193 75.739 17.6193ZM97.1012 15.7102V14.8409L100.936 8.77273H101.567V10.1193H101.141L98.2433 14.7045V14.7727H103.408V15.7102H97.1012ZM101.209 17.5V15.446V15.0412V8.77273H102.215V17.5H101.209ZM105.345 17.5682C105.135 17.5682 104.954 17.4929 104.804 17.3423C104.653 17.1918 104.578 17.0114 104.578 16.8011C104.578 16.5909 104.653 16.4105 104.804 16.2599C104.954 16.1094 105.135 16.0341 105.345 16.0341C105.555 16.0341 105.735 16.1094 105.886 16.2599C106.037 16.4105 106.112 16.5909 106.112 16.8011C106.112 16.9403 106.076 17.0682 106.005 17.1847C105.937 17.3011 105.845 17.3949 105.728 17.4659C105.615 17.5341 105.487 17.5682 105.345 17.5682ZM108.65 17.5682C108.439 17.5682 108.259 17.4929 108.108 17.3423C107.958 17.1918 107.882 17.0114 107.882 16.8011C107.882 16.5909 107.958 16.4105 108.108 16.2599C108.259 16.1094 108.439 16.0341 108.65 16.0341C108.86 16.0341 109.04 16.1094 109.191 16.2599C109.341 16.4105 109.417 16.5909 109.417 16.8011C109.417 16.9403 109.381 17.0682 109.31 17.1847C109.242 17.3011 109.15 17.3949 109.033 17.4659C108.919 17.5341 108.792 17.5682 108.65 17.5682ZM111.954 17.5682C111.744 17.5682 111.564 17.4929 111.413 17.3423C111.262 17.1918 111.187 17.0114 111.187 16.8011C111.187 16.5909 111.262 16.4105 111.413 16.2599C111.564 16.1094 111.744 16.0341 111.954 16.0341C112.164 16.0341 112.345 16.1094 112.495 16.2599C112.646 16.4105 112.721 16.5909 112.721 16.8011C112.721 16.9403 112.686 17.0682 112.615 17.1847C112.547 17.3011 112.454 17.3949 112.338 17.4659C112.224 17.5341 112.096 17.5682 111.954 17.5682ZM115.259 17.5682C115.049 17.5682 114.868 17.4929 114.718 17.3423C114.567 17.1918 114.492 17.0114 114.492 16.8011C114.492 16.5909 114.567 16.4105 114.718 16.2599C114.868 16.1094 115.049 16.0341 115.259 16.0341C115.469 16.0341 115.65 16.1094 115.8 16.2599C115.951 16.4105 116.026 16.5909 116.026 16.8011C116.026 16.9403 115.99 17.0682 115.919 17.1847C115.851 17.3011 115.759 17.3949 115.642 17.4659C115.529 17.5341 115.401 17.5682 115.259 17.5682ZM124.257 8.77273V17.5H123.2V9.88068H123.149L121.018 11.2955V10.2216L123.2 8.77273H124.257ZM129.613 17.6193C128.971 17.6193 128.424 17.4446 127.973 17.0952C127.521 16.7429 127.176 16.233 126.937 15.5653C126.699 14.8949 126.579 14.0852 126.579 13.1364C126.579 12.1932 126.699 11.3878 126.937 10.7202C127.179 10.0497 127.525 9.53835 127.977 9.18608C128.431 8.83097 128.977 8.65341 129.613 8.65341C130.25 8.65341 130.794 8.83097 131.245 9.18608C131.7 9.53835 132.047 10.0497 132.285 10.7202C132.527 11.3878 132.647 12.1932 132.647 13.1364C132.647 14.0852 132.528 14.8949 132.289 15.5653C132.051 16.233 131.706 16.7429 131.254 17.0952C130.802 17.4446 130.255 17.6193 129.613 17.6193ZM129.613 16.6818C130.25 16.6818 130.744 16.375 131.096 15.7614C131.449 15.1477 131.625 14.2727 131.625 13.1364C131.625 12.3807 131.544 11.7372 131.382 11.206C131.223 10.6747 130.993 10.2699 130.691 9.99148C130.393 9.71307 130.034 9.57386 129.613 9.57386C128.983 9.57386 128.49 9.88494 128.135 10.5071C127.779 11.1264 127.602 12.0028 127.602 13.1364C127.602 13.892 127.681 14.5341 127.841 15.0625C128 15.5909 128.228 15.9929 128.527 16.2685C128.828 16.544 129.19 16.6818 129.613 16.6818ZM134.712 17.5682C134.502 17.5682 134.321 17.4929 134.171 17.3423C134.02 17.1918 133.945 17.0114 133.945 16.8011C133.945 16.5909 134.02 16.4105 134.171 16.2599C134.321 16.1094 134.502 16.0341 134.712 16.0341C134.922 16.0341 135.103 16.1094 135.253 16.2599C135.404 16.4105 135.479 16.5909 135.479 16.8011C135.479 16.9403 135.444 17.0682 135.373 17.1847C135.304 17.3011 135.212 17.3949 135.096 17.4659C134.982 17.5341 134.854 17.5682 134.712 17.5682ZM138.017 17.5682C137.806 17.5682 137.626 17.4929 137.475 17.3423C137.325 17.1918 137.25 17.0114 137.25 16.8011C137.25 16.5909 137.325 16.4105 137.475 16.2599C137.626 16.1094 137.806 16.0341 138.017 16.0341C138.227 16.0341 138.407 16.1094 138.558 16.2599C138.708 16.4105 138.784 16.5909 138.784 16.8011C138.784 16.9403 138.748 17.0682 138.677 17.1847C138.609 17.3011 138.517 17.3949 138.4 17.4659C138.287 17.5341 138.159 17.5682 138.017 17.5682ZM141.321 17.5682C141.111 17.5682 140.931 17.4929 140.78 17.3423C140.63 17.1918 140.554 17.0114 140.554 16.8011C140.554 16.5909 140.63 16.4105 140.78 16.2599C140.931 16.1094 141.111 16.0341 141.321 16.0341C141.532 16.0341 141.712 16.1094 141.863 16.2599C142.013 16.4105 142.088 16.5909 142.088 16.8011C142.088 16.9403 142.053 17.0682 141.982 17.1847C141.914 17.3011 141.821 17.3949 141.705 17.4659C141.591 17.5341 141.463 17.5682 141.321 17.5682ZM144.626 17.5682C144.416 17.5682 144.235 17.4929 144.085 17.3423C143.934 17.1918 143.859 17.0114 143.859 16.8011C143.859 16.5909 143.934 16.4105 144.085 16.2599C144.235 16.1094 144.416 16.0341 144.626 16.0341C144.836 16.0341 145.017 16.1094 145.167 16.2599C145.318 16.4105 145.393 16.5909 145.393 16.8011C145.393 16.9403 145.358 17.0682 145.287 17.1847C145.218 17.3011 145.126 17.3949 145.01 17.4659C144.896 17.5341 144.768 17.5682 144.626 17.5682ZM150.556 17.5V16.733L153.436 13.5795C153.775 13.2102 154.053 12.8892 154.272 12.6165C154.49 12.3409 154.652 12.0824 154.757 11.8409C154.865 11.5966 154.919 11.3409 154.919 11.0739C154.919 10.767 154.846 10.5014 154.698 10.277C154.553 10.0526 154.354 9.87926 154.101 9.7571C153.848 9.63494 153.564 9.57386 153.249 9.57386C152.914 9.57386 152.621 9.64347 152.371 9.78267C152.124 9.91903 151.932 10.1108 151.796 10.358C151.662 10.6051 151.596 10.8949 151.596 11.2273H150.59C150.59 10.7159 150.708 10.267 150.944 9.88068C151.179 9.49432 151.5 9.19318 151.907 8.97727C152.316 8.76136 152.775 8.65341 153.283 8.65341C153.794 8.65341 154.248 8.76136 154.642 8.97727C155.037 9.19318 155.347 9.48437 155.571 9.85085C155.796 10.2173 155.908 10.625 155.908 11.0739C155.908 11.3949 155.85 11.7088 155.733 12.0156C155.62 12.3196 155.421 12.6591 155.137 13.0341C154.855 13.4062 154.465 13.8608 153.965 14.3977L152.005 16.4943V16.5625H156.061V17.5H150.556ZM160.668 17.6193C160.026 17.6193 159.479 17.4446 159.027 17.0952C158.576 16.7429 158.23 16.233 157.992 15.5653C157.753 14.8949 157.634 14.0852 157.634 13.1364C157.634 12.1932 157.753 11.3878 157.992 10.7202C158.233 10.0497 158.58 9.53835 159.032 9.18608C159.486 8.83097 160.032 8.65341 160.668 8.65341C161.304 8.65341 161.848 8.83097 162.3 9.18608C162.755 9.53835 163.101 10.0497 163.34 10.7202C163.581 11.3878 163.702 12.1932 163.702 13.1364C163.702 14.0852 163.583 14.8949 163.344 15.5653C163.105 16.233 162.76 16.7429 162.309 17.0952C161.857 17.4446 161.31 17.6193 160.668 17.6193ZM160.668 16.6818C161.304 16.6818 161.799 16.375 162.151 15.7614C162.503 15.1477 162.679 14.2727 162.679 13.1364C162.679 12.3807 162.598 11.7372 162.436 11.206C162.277 10.6747 162.047 10.2699 161.746 9.99148C161.448 9.71307 161.088 9.57386 160.668 9.57386C160.037 9.57386 159.544 9.88494 159.189 10.5071C158.834 11.1264 158.657 12.0028 158.657 13.1364C158.657 13.892 158.736 14.5341 158.895 15.0625C159.054 15.5909 159.283 15.9929 159.581 16.2685C159.882 16.544 160.245 16.6818 160.668 16.6818Z" fill="#A4B8D6"/>
<path d="M185.244 17.2362C185.088 17.0672 185 16.838 185 16.5991C185 16.3601 185.088 16.131 185.244 15.962L187.988 12.9946L185.244 10.0272C185.092 9.8572 185.008 9.62957 185.01 9.3933C185.012 9.15703 185.1 8.93101 185.254 8.76394C185.409 8.59686 185.618 8.50209 185.836 8.50003C186.055 8.49798 186.265 8.58881 186.422 8.75296L189.756 12.3575C189.912 12.5264 190 12.7556 190 12.9946C190 13.2335 189.912 13.4627 189.756 13.6317L186.422 17.2362C186.266 17.4051 186.054 17.5 185.833 17.5C185.612 17.5 185.4 17.4051 185.244 17.2362Z" fill="#585858"/>
</svg>
