<svg width="15" height="15" viewBox="0 0 15 15" fill="none" xmlns="http://www.w3.org/2000/svg">
<g clip-path="url(#clip0_3631_18235)">
<path d="M7.5 0.878906C9.02769 0.879522 10.5082 1.40826 11.6907 2.37553C12.8731 3.34281 13.6848 4.68913 13.9882 6.18639C14.2917 7.68364 14.0681 9.23975 13.3555 10.5911C12.6429 11.9424 11.4851 13.0058 10.0781 13.6011C8.46002 14.2848 6.63656 14.2978 5.0089 13.6371C3.38123 12.9764 2.08269 11.6962 1.39893 10.0781C0.715165 8.46002 0.702198 6.63656 1.36288 5.0089C2.02356 3.38123 3.30377 2.08269 4.92188 1.39893C5.73747 1.05378 6.61438 0.876904 7.5 0.878906ZM7.5 0C3.35801 0 0 3.35801 0 7.5C0 11.642 3.35801 15 7.5 15C11.642 15 15 11.642 15 7.5C15 3.35801 11.642 0 7.5 0Z" fill="#8C97B5"/>
<path d="M9.65801 11.538L7.5 9.33516L5.34199 11.538C5.30176 11.5709 5.25301 11.5918 5.2014 11.5982C5.14979 11.6046 5.09743 11.5962 5.05039 11.574C5.00335 11.5518 4.96356 11.5168 4.93562 11.4729C4.90769 11.4291 4.89277 11.3782 4.89258 11.3262V4.05322C4.89258 3.87972 4.96144 3.7133 5.08405 3.59053C5.20666 3.46776 5.37298 3.39867 5.54648 3.39844H9.45352C9.62702 3.39867 9.79334 3.46776 9.91595 3.59053C10.0386 3.7133 10.1074 3.87972 10.1074 4.05322V11.3262C10.1072 11.3782 10.0923 11.4291 10.0644 11.4729C10.0364 11.5168 9.99665 11.5518 9.94961 11.574C9.90257 11.5962 9.85021 11.6046 9.7986 11.5982C9.74699 11.5918 9.69824 11.5709 9.65801 11.538Z" fill="#8C97B5"/>
</g>
<defs>
<clipPath id="clip0_3631_18235">
<rect width="15" height="15" fill="white"/>
</clipPath>
</defs>
</svg>
