<svg width="16" height="16" viewBox="0 0 16 16" fill="none" xmlns="http://www.w3.org/2000/svg">
<path d="M15.7221 14.381L12.6465 11.3062C13.5844 10.0838 14.0918 8.58581 14.0899 7.04523C14.0899 5.16316 13.3568 3.39439 12.0258 2.06367C11.373 1.40738 10.5965 0.887069 9.74116 0.532844C8.88587 0.178619 7.96879 -0.00248157 7.04301 2.56816e-05C5.16095 2.56816e-05 3.39176 0.732943 2.06023 2.06367C-0.686744 4.81045 -0.686744 9.28001 2.06023 12.0268C2.71302 12.6831 3.48954 13.2034 4.34484 13.5576C5.20014 13.9119 6.11723 14.093 7.04301 14.0904C8.60499 14.0904 10.0849 13.5789 11.3055 12.6469L14.3811 15.7222C14.566 15.9071 14.8088 16 15.0516 16C15.2944 16 15.5372 15.9071 15.7221 15.7222C15.8102 15.6341 15.8801 15.5296 15.9278 15.4145C15.9755 15.2995 16 15.1762 16 15.0516C16 14.9271 15.9755 14.8037 15.9278 14.6887C15.8801 14.5736 15.8102 14.4691 15.7221 14.381ZM3.40171 10.6861C1.39352 8.67841 1.394 5.41205 3.40171 3.40435C3.87892 2.92486 4.44649 2.54474 5.07159 2.28597C5.6967 2.0272 6.36692 1.89492 7.04348 1.89679C7.71998 1.89494 8.39013 2.02722 9.01515 2.28599C9.64017 2.54476 10.2077 2.92487 10.6848 3.40435C11.1645 3.88137 11.5448 4.44878 11.8038 5.07373C12.0627 5.69869 12.195 6.36879 12.1932 7.04523C12.1932 8.42052 11.6573 9.71331 10.6848 10.6861C9.71222 11.6589 8.41911 12.1937 7.04301 12.1937C5.66786 12.1937 4.37427 11.658 3.40124 10.6861H3.40171Z" fill="url(#paint0_linear_4495_4143)"/>
<defs>
<linearGradient id="paint0_linear_4495_4143" x1="-0.0136613" y1="1.06928" x2="16.0771" y2="1.16898" gradientUnits="userSpaceOnUse">
<stop stop-color="#6E3EA0"/>
<stop offset="1" stop-color="#3D54A5"/>
</linearGradient>
</defs>
</svg>
