<svg width="15" height="15" viewBox="0 0 15 15" fill="none" xmlns="http://www.w3.org/2000/svg">
<path d="M7.5 0.878906C9.02769 0.879522 10.5082 1.40826 11.6907 2.37553C12.8731 3.34281 13.6848 4.68913 13.9882 6.18639C14.2917 7.68364 14.0681 9.23975 13.3555 10.5911C12.6429 11.9424 11.4851 13.0058 10.0781 13.6011C8.46002 14.2848 6.63656 14.2978 5.0089 13.6371C3.38123 12.9764 2.08269 11.6962 1.39893 10.0781C0.715165 8.46002 0.702198 6.63656 1.36288 5.0089C2.02356 3.38123 3.30377 2.08269 4.92188 1.39893C5.73747 1.05378 6.61438 0.876904 7.5 0.878906ZM7.5 0C3.35801 0 0 3.35801 0 7.5C0 11.642 3.35801 15 7.5 15C11.642 15 15 11.642 15 7.5C15 3.35801 11.642 0 7.5 0Z" fill="#8C97B5"/>
<path d="M11.5 6.76667L8.38889 3.5V5.36667C5.27778 5.83333 3.94444 8.16667 3.5 10.5C4.61111 8.86667 6.16667 8.12 8.38889 8.12V10.0333L11.5 6.76667Z" fill="#8C97B5"/>
</svg>
