<svg width="215" height="30" viewBox="0 0 215 30" fill="none" xmlns="http://www.w3.org/2000/svg">
<rect width="215" height="25" transform="translate(0 2.5)" fill="white"/>
<path d="M5.82955 12.9545C5.77841 12.5227 5.57102 12.1875 5.20739 11.9489C4.84375 11.7102 4.39773 11.5909 3.86932 11.5909C3.48295 11.5909 3.14489 11.6534 2.85511 11.7784C2.56818 11.9034 2.34375 12.0753 2.18182 12.294C2.02273 12.5128 1.94318 12.7614 1.94318 13.0398C1.94318 13.2727 1.99858 13.473 2.10938 13.6406C2.22301 13.8054 2.3679 13.9432 2.54403 14.054C2.72017 14.1619 2.90483 14.2514 3.09801 14.3224C3.29119 14.3906 3.46875 14.446 3.63068 14.4886L4.51705 14.7273C4.74432 14.7869 4.99716 14.8693 5.27557 14.9744C5.55682 15.0795 5.82528 15.223 6.08097 15.4048C6.33949 15.5838 6.55256 15.8139 6.72017 16.0952C6.88778 16.3764 6.97159 16.7216 6.97159 17.1307C6.97159 17.6023 6.84801 18.0284 6.60085 18.4091C6.35653 18.7898 5.99858 19.0923 5.52699 19.3168C5.05824 19.5412 4.48864 19.6534 3.81818 19.6534C3.19318 19.6534 2.65199 19.5526 2.1946 19.3509C1.74006 19.1491 1.3821 18.8679 1.12074 18.5071C0.862216 18.1463 0.715909 17.7273 0.681818 17.25H1.77273C1.80114 17.5795 1.91193 17.8523 2.10511 18.0682C2.30114 18.2812 2.5483 18.4403 2.84659 18.5455C3.14773 18.6477 3.47159 18.6989 3.81818 18.6989C4.22159 18.6989 4.58381 18.6335 4.90483 18.5028C5.22585 18.3693 5.48011 18.1847 5.66761 17.9489C5.85511 17.7102 5.94886 17.4318 5.94886 17.1136C5.94886 16.8239 5.8679 16.5881 5.70597 16.4062C5.54403 16.2244 5.33097 16.0767 5.06676 15.9631C4.80256 15.8494 4.51705 15.75 4.21023 15.6648L3.13636 15.358C2.45455 15.1619 1.91477 14.8821 1.51705 14.5185C1.11932 14.1548 0.920455 13.679 0.920455 13.0909C0.920455 12.6023 1.05256 12.1761 1.31676 11.8125C1.58381 11.446 1.94176 11.1619 2.39062 10.9602C2.84233 10.7557 3.34659 10.6534 3.90341 10.6534C4.46591 10.6534 4.96591 10.7543 5.40341 10.956C5.84091 11.1548 6.1875 11.4276 6.44318 11.7741C6.7017 12.1207 6.83807 12.5142 6.85227 12.9545H5.82955ZM9.57848 15.5625V19.5H8.5728V10.7727H9.57848V13.9773H9.66371C9.81712 13.6392 10.0472 13.3707 10.354 13.1719C10.6637 12.9702 11.0756 12.8693 11.5898 12.8693C12.0359 12.8693 12.4265 12.9588 12.7617 13.1378C13.0969 13.3139 13.3569 13.5852 13.5415 13.9517C13.729 14.3153 13.8228 14.7784 13.8228 15.3409V19.5H12.8171V15.4091C12.8171 14.8892 12.6822 14.4872 12.4123 14.2031C12.1452 13.9162 11.7745 13.7727 11.3001 13.7727C10.9705 13.7727 10.6751 13.8423 10.4137 13.9815C10.1552 14.1207 9.95064 14.3239 9.80007 14.5909C9.65234 14.858 9.57848 15.1818 9.57848 15.5625ZM18.3217 19.6364C17.7308 19.6364 17.2124 19.4957 16.7663 19.2145C16.3232 18.9332 15.9766 18.5398 15.7266 18.0341C15.4794 17.5284 15.3558 16.9375 15.3558 16.2614C15.3558 15.5795 15.4794 14.9844 15.7266 14.4759C15.9766 13.9673 16.3232 13.5724 16.7663 13.2912C17.2124 13.0099 17.7308 12.8693 18.3217 12.8693C18.9126 12.8693 19.4297 13.0099 19.8729 13.2912C20.3189 13.5724 20.6655 13.9673 20.9126 14.4759C21.1626 14.9844 21.2876 15.5795 21.2876 16.2614C21.2876 16.9375 21.1626 17.5284 20.9126 18.0341C20.6655 18.5398 20.3189 18.9332 19.8729 19.2145C19.4297 19.4957 18.9126 19.6364 18.3217 19.6364ZM18.3217 18.733C18.7706 18.733 19.1399 18.6179 19.4297 18.3878C19.7195 18.1577 19.9339 17.8551 20.0732 17.4801C20.2124 17.1051 20.282 16.6989 20.282 16.2614C20.282 15.8239 20.2124 15.4162 20.0732 15.0384C19.9339 14.6605 19.7195 14.3551 19.4297 14.1222C19.1399 13.8892 18.7706 13.7727 18.3217 13.7727C17.8729 13.7727 17.5036 13.8892 17.2138 14.1222C16.924 14.3551 16.7095 14.6605 16.5703 15.0384C16.4311 15.4162 16.3615 15.8239 16.3615 16.2614C16.3615 16.6989 16.4311 17.1051 16.5703 17.4801C16.7095 17.8551 16.924 18.1577 17.2138 18.3878C17.5036 18.6179 17.8729 18.733 18.3217 18.733ZM24.0831 19.5L22.0888 12.9545H23.1456L24.5604 17.9659H24.6286L26.0263 12.9545H27.1001L28.4808 17.9489H28.549L29.9638 12.9545H31.0206L29.0263 19.5H28.0376L26.6058 14.4716H26.5036L25.0717 19.5H24.0831ZM32.3501 19.5V12.9545H33.3558V19.5H32.3501ZM32.8615 11.8636C32.6655 11.8636 32.4964 11.7969 32.3544 11.6634C32.2152 11.5298 32.1456 11.3693 32.1456 11.1818C32.1456 10.9943 32.2152 10.8338 32.3544 10.7003C32.4964 10.5668 32.6655 10.5 32.8615 10.5C33.0575 10.5 33.2251 10.5668 33.3643 10.7003C33.5064 10.8338 33.5774 10.9943 33.5774 11.1818C33.5774 11.3693 33.5064 11.5298 33.3643 11.6634C33.2251 11.7969 33.0575 11.8636 32.8615 11.8636ZM36.2035 15.5625V19.5H35.1978V12.9545H36.1694V13.9773H36.2546C36.408 13.6449 36.641 13.3778 36.9535 13.1761C37.266 12.9716 37.6694 12.8693 38.1637 12.8693C38.6069 12.8693 38.9947 12.9602 39.3271 13.142C39.6594 13.321 39.918 13.5938 40.1026 13.9602C40.2873 14.3239 40.3796 14.7841 40.3796 15.3409V19.5H39.3739V15.4091C39.3739 14.8949 39.2404 14.4943 38.9734 14.2074C38.7063 13.9176 38.3398 13.7727 37.8739 13.7727C37.5529 13.7727 37.266 13.8423 37.0131 13.9815C36.7631 14.1207 36.5657 14.3239 36.4208 14.5909C36.2759 14.858 36.2035 15.1818 36.2035 15.5625ZM44.8594 22.0909C44.3736 22.0909 43.956 22.0284 43.6065 21.9034C43.2571 21.7812 42.9659 21.6193 42.733 21.4176C42.5028 21.2188 42.3196 21.0057 42.1832 20.7784L42.9844 20.2159C43.0753 20.3352 43.1903 20.4716 43.3295 20.625C43.4688 20.7812 43.6591 20.9162 43.9006 21.0298C44.1449 21.1463 44.4645 21.2045 44.8594 21.2045C45.3878 21.2045 45.8239 21.0767 46.1676 20.821C46.5114 20.5653 46.6832 20.1648 46.6832 19.6193V18.2898H46.598C46.5241 18.4091 46.419 18.5568 46.2827 18.733C46.1491 18.9062 45.956 19.0611 45.7031 19.1974C45.4531 19.331 45.1151 19.3977 44.6889 19.3977C44.1605 19.3977 43.6861 19.2727 43.2656 19.0227C42.848 18.7727 42.517 18.4091 42.2727 17.9318C42.0313 17.4545 41.9105 16.875 41.9105 16.1932C41.9105 15.5227 42.0284 14.9389 42.2642 14.4418C42.5 13.9418 42.8281 13.5554 43.2486 13.2827C43.669 13.0071 44.1548 12.8693 44.706 12.8693C45.1321 12.8693 45.4702 12.9403 45.7202 13.0824C45.973 13.2216 46.1662 13.3807 46.2997 13.5597C46.4361 13.7358 46.5412 13.8807 46.6151 13.9943H46.7173V12.9545H47.6889V19.6875C47.6889 20.25 47.5611 20.7074 47.3054 21.0597C47.0526 21.4148 46.7116 21.6747 46.2827 21.8395C45.8565 22.0071 45.3821 22.0909 44.8594 22.0909ZM44.8253 18.4943C45.2287 18.4943 45.5696 18.402 45.848 18.2173C46.1264 18.0327 46.3381 17.767 46.483 17.4205C46.6278 17.0739 46.7003 16.6591 46.7003 16.1761C46.7003 15.7045 46.6293 15.2884 46.4872 14.9276C46.3452 14.5668 46.1349 14.2841 45.8565 14.0795C45.5781 13.875 45.2344 13.7727 44.8253 13.7727C44.3991 13.7727 44.044 13.8807 43.7599 14.0966C43.4787 14.3125 43.267 14.6023 43.125 14.9659C42.9858 15.3295 42.9162 15.733 42.9162 16.1761C42.9162 16.6307 42.9872 17.0327 43.1293 17.3821C43.2741 17.7287 43.4872 18.0014 43.7685 18.2003C44.0526 18.3963 44.4048 18.4943 44.8253 18.4943Z" fill="#666666"/>
<rect x="59" width="53" height="30" rx="4" fill="#F1F4F9"/>
<path d="M77.7074 19.834V18.5044L80.8139 15.628C81.0781 15.3723 81.2997 15.1422 81.4787 14.9377C81.6605 14.7331 81.7983 14.5328 81.892 14.3368C81.9858 14.138 82.0327 13.9235 82.0327 13.6934C82.0327 13.4377 81.9744 13.2175 81.858 13.0328C81.7415 12.8453 81.5824 12.7019 81.3807 12.6024C81.179 12.5002 80.9503 12.449 80.6946 12.449C80.4276 12.449 80.1946 12.503 79.9957 12.611C79.7969 12.7189 79.6435 12.8738 79.5355 13.0755C79.4276 13.2772 79.3736 13.5172 79.3736 13.7956H77.6222C77.6222 13.2246 77.7514 12.7289 78.0099 12.3084C78.2685 11.888 78.6307 11.5627 79.0966 11.3326C79.5625 11.1024 80.0994 10.9874 80.7074 10.9874C81.3324 10.9874 81.8764 11.0982 82.3395 11.3198C82.8054 11.5385 83.1676 11.8425 83.4261 12.2317C83.6847 12.6209 83.8139 13.0669 83.8139 13.5698C83.8139 13.8993 83.7486 14.2246 83.6179 14.5456C83.4901 14.8667 83.2614 15.2232 82.9318 15.6152C82.6023 16.0044 82.1378 16.4718 81.5384 17.0172L80.2642 18.2658V18.3255H83.929V19.834H77.7074Z" fill="#666666"/>
<path d="M130.42 15.1364C130.42 16.0568 130.254 16.8523 129.922 17.5227C129.589 18.1932 129.134 18.7102 128.554 19.0739C127.974 19.4375 127.313 19.6193 126.568 19.6193C125.824 19.6193 125.162 19.4375 124.582 19.0739C124.003 18.7102 123.547 18.1932 123.214 17.5227C122.882 16.8523 122.716 16.0568 122.716 15.1364C122.716 14.2159 122.882 13.4205 123.214 12.75C123.547 12.0795 124.003 11.5625 124.582 11.1989C125.162 10.8352 125.824 10.6534 126.568 10.6534C127.313 10.6534 127.974 10.8352 128.554 11.1989C129.134 11.5625 129.589 12.0795 129.922 12.75C130.254 13.4205 130.42 14.2159 130.42 15.1364ZM129.398 15.1364C129.398 14.3807 129.271 13.7429 129.018 13.223C128.768 12.7031 128.429 12.3097 128 12.0426C127.574 11.7756 127.097 11.642 126.568 11.642C126.04 11.642 125.561 11.7756 125.132 12.0426C124.706 12.3097 124.366 12.7031 124.114 13.223C123.864 13.7429 123.739 14.3807 123.739 15.1364C123.739 15.892 123.864 16.5298 124.114 17.0497C124.366 17.5696 124.706 17.9631 125.132 18.2301C125.561 18.4972 126.04 18.6307 126.568 18.6307C127.097 18.6307 127.574 18.4972 128 18.2301C128.429 17.9631 128.768 17.5696 129.018 17.0497C129.271 16.5298 129.398 15.892 129.398 15.1364ZM134.976 12.9545V13.8068H131.447V12.9545H134.976ZM132.504 19.5V12.0511C132.504 11.6761 132.592 11.3636 132.768 11.1136C132.945 10.8636 133.173 10.6761 133.455 10.5511C133.736 10.4261 134.033 10.3636 134.345 10.3636C134.592 10.3636 134.794 10.3835 134.95 10.4233C135.107 10.4631 135.223 10.5 135.3 10.5341L135.01 11.4034C134.959 11.3864 134.888 11.3651 134.797 11.3395C134.709 11.3139 134.592 11.3011 134.447 11.3011C134.115 11.3011 133.875 11.3849 133.727 11.5526C133.582 11.7202 133.51 11.9659 133.51 12.2898V19.5H132.504ZM142.811 10.7727V19.5H141.755V11.8807H141.703L139.573 13.2955V12.2216L141.755 10.7727H142.811ZM148.219 19.6193C147.861 19.6136 147.503 19.5455 147.145 19.4148C146.787 19.2841 146.461 19.0639 146.165 18.7543C145.87 18.4418 145.632 18.0199 145.453 17.4886C145.275 16.9545 145.185 16.2841 145.185 15.4773C145.185 14.7045 145.257 14.0199 145.402 13.4233C145.547 12.8239 145.757 12.3196 146.033 11.9105C146.309 11.4986 146.641 11.1861 147.03 10.973C147.422 10.7599 147.864 10.6534 148.355 10.6534C148.844 10.6534 149.279 10.7514 149.659 10.9474C150.043 11.1406 150.355 11.4105 150.597 11.7571C150.838 12.1037 150.995 12.5028 151.066 12.9545H150.026C149.929 12.5625 149.742 12.2372 149.463 11.9787C149.185 11.7202 148.816 11.5909 148.355 11.5909C147.679 11.5909 147.147 11.8849 146.757 12.473C146.371 13.0611 146.176 13.8864 146.174 14.9489H146.242C146.401 14.7074 146.59 14.5014 146.809 14.331C147.03 14.1577 147.275 14.0241 147.542 13.9304C147.809 13.8366 148.091 13.7898 148.39 13.7898C148.89 13.7898 149.347 13.9148 149.762 14.1648C150.176 14.4119 150.509 14.7543 150.759 15.1918C151.009 15.6264 151.134 16.125 151.134 16.6875C151.134 17.2273 151.013 17.7216 150.772 18.1705C150.53 18.6165 150.191 18.9716 149.753 19.2358C149.319 19.4972 148.807 19.625 148.219 19.6193ZM148.219 18.6818C148.577 18.6818 148.898 18.5923 149.182 18.4134C149.469 18.2344 149.695 17.9943 149.86 17.6932C150.027 17.392 150.111 17.0568 150.111 16.6875C150.111 16.3267 150.03 15.9986 149.868 15.7031C149.709 15.4048 149.489 15.1676 149.208 14.9915C148.929 14.8153 148.611 14.7273 148.253 14.7273C147.983 14.7273 147.732 14.7812 147.499 14.8892C147.266 14.9943 147.061 15.1392 146.885 15.3239C146.712 15.5085 146.576 15.7202 146.476 15.9588C146.377 16.1946 146.327 16.4432 146.327 16.7045C146.327 17.0511 146.408 17.375 146.57 17.6761C146.735 17.9773 146.959 18.2202 147.243 18.4048C147.53 18.5895 147.855 18.6818 148.219 18.6818ZM152.81 19.5V18.733L155.69 15.5795C156.028 15.2102 156.307 14.8892 156.526 14.6165C156.744 14.3409 156.906 14.0824 157.011 13.8409C157.119 13.5966 157.173 13.3409 157.173 13.0739C157.173 12.767 157.099 12.5014 156.952 12.277C156.807 12.0526 156.608 11.8793 156.355 11.7571C156.102 11.6349 155.818 11.5739 155.503 11.5739C155.168 11.5739 154.875 11.6435 154.625 11.7827C154.378 11.919 154.186 12.1108 154.05 12.358C153.916 12.6051 153.849 12.8949 153.849 13.2273H152.844C152.844 12.7159 152.962 12.267 153.197 11.8807C153.433 11.4943 153.754 11.1932 154.161 10.9773C154.57 10.7614 155.028 10.6534 155.537 10.6534C156.048 10.6534 156.501 10.7614 156.896 10.9773C157.291 11.1932 157.601 11.4844 157.825 11.8509C158.05 12.2173 158.162 12.625 158.162 13.0739C158.162 13.3949 158.104 13.7088 157.987 14.0156C157.874 14.3196 157.675 14.6591 157.391 15.0341C157.109 15.4062 156.719 15.8608 156.219 16.3977L154.259 18.4943V18.5625H158.315V19.5H152.81ZM166.212 19.6364C165.581 19.6364 165.037 19.4972 164.58 19.2188C164.125 18.9375 163.774 18.5455 163.527 18.0426C163.283 17.5369 163.161 16.9489 163.161 16.2784C163.161 15.608 163.283 15.017 163.527 14.5057C163.774 13.9915 164.118 13.5909 164.558 13.304C165.001 13.0142 165.518 12.8693 166.109 12.8693C166.45 12.8693 166.787 12.9261 167.119 13.0398C167.452 13.1534 167.754 13.3381 168.027 13.5938C168.3 13.8466 168.517 14.1818 168.679 14.5994C168.841 15.017 168.922 15.5312 168.922 16.142V16.5682H163.876V15.6989H167.899C167.899 15.3295 167.825 15 167.678 14.7102C167.533 14.4205 167.325 14.1918 167.055 14.0241C166.788 13.8565 166.473 13.7727 166.109 13.7727C165.709 13.7727 165.362 13.8722 165.07 14.071C164.78 14.267 164.557 14.5227 164.401 14.8381C164.244 15.1534 164.166 15.4915 164.166 15.8523V16.4318C164.166 16.9261 164.251 17.3452 164.422 17.6889C164.595 18.0298 164.835 18.2898 165.142 18.4688C165.449 18.6449 165.805 18.733 166.212 18.733C166.476 18.733 166.714 18.696 166.928 18.6222C167.143 18.5455 167.33 18.4318 167.486 18.2812C167.642 18.1278 167.763 17.9375 167.848 17.7102L168.82 17.983C168.717 18.3125 168.545 18.6023 168.304 18.8523C168.063 19.0994 167.764 19.2926 167.409 19.4318C167.054 19.5682 166.655 19.6364 166.212 19.6364ZM171.457 15.5625V19.5H170.452V12.9545H171.423V13.9773H171.509C171.662 13.6449 171.895 13.3778 172.207 13.1761C172.52 12.9716 172.923 12.8693 173.418 12.8693C173.861 12.8693 174.249 12.9602 174.581 13.142C174.913 13.321 175.172 13.5938 175.357 13.9602C175.541 14.3239 175.634 14.7841 175.634 15.3409V19.5H174.628V15.4091C174.628 14.8949 174.494 14.4943 174.227 14.2074C173.96 13.9176 173.594 13.7727 173.128 13.7727C172.807 13.7727 172.52 13.8423 172.267 13.9815C172.017 14.1207 171.82 14.3239 171.675 14.5909C171.53 14.858 171.457 15.1818 171.457 15.5625ZM180.318 12.9545V13.8068H176.926V12.9545H180.318ZM177.914 11.3864H178.92V17.625C178.92 17.9091 178.961 18.1222 179.044 18.2642C179.129 18.4034 179.237 18.4972 179.368 18.5455C179.501 18.5909 179.642 18.6136 179.789 18.6136C179.9 18.6136 179.991 18.608 180.062 18.5966C180.133 18.5824 180.19 18.571 180.233 18.5625L180.437 19.4659C180.369 19.4915 180.274 19.517 180.152 19.5426C180.029 19.571 179.875 19.5852 179.687 19.5852C179.403 19.5852 179.125 19.5241 178.852 19.402C178.582 19.2798 178.358 19.0938 178.179 18.8438C178.002 18.5938 177.914 18.2784 177.914 17.8977V11.3864ZM181.831 19.5V12.9545H182.802V13.9432H182.87C182.99 13.6193 183.206 13.3565 183.518 13.1548C183.831 12.9531 184.183 12.8523 184.575 12.8523C184.649 12.8523 184.741 12.8537 184.852 12.8565C184.963 12.8594 185.047 12.8636 185.103 12.8693V13.892C185.069 13.8835 184.991 13.8707 184.869 13.8537C184.75 13.8338 184.623 13.8239 184.49 13.8239C184.172 13.8239 183.887 13.8906 183.637 14.0241C183.39 14.1548 183.194 14.3366 183.049 14.5696C182.907 14.7997 182.836 15.0625 182.836 15.358V19.5H181.831ZM186.295 19.5V12.9545H187.301V19.5H186.295ZM186.807 11.8636C186.611 11.8636 186.442 11.7969 186.3 11.6634C186.161 11.5298 186.091 11.3693 186.091 11.1818C186.091 10.9943 186.161 10.8338 186.3 10.7003C186.442 10.5668 186.611 10.5 186.807 10.5C187.003 10.5 187.17 10.5668 187.31 10.7003C187.452 10.8338 187.523 10.9943 187.523 11.1818C187.523 11.3693 187.452 11.5298 187.31 11.6634C187.17 11.7969 187.003 11.8636 186.807 11.8636ZM191.887 19.6364C191.257 19.6364 190.713 19.4972 190.255 19.2188C189.801 18.9375 189.45 18.5455 189.203 18.0426C188.958 17.5369 188.836 16.9489 188.836 16.2784C188.836 15.608 188.958 15.017 189.203 14.5057C189.45 13.9915 189.794 13.5909 190.234 13.304C190.677 13.0142 191.194 12.8693 191.785 12.8693C192.126 12.8693 192.463 12.9261 192.795 13.0398C193.127 13.1534 193.43 13.3381 193.703 13.5938C193.975 13.8466 194.193 14.1818 194.355 14.5994C194.517 15.017 194.598 15.5312 194.598 16.142V16.5682H189.552V15.6989H193.575C193.575 15.3295 193.501 15 193.353 14.7102C193.208 14.4205 193.001 14.1918 192.731 14.0241C192.464 13.8565 192.149 13.7727 191.785 13.7727C191.385 13.7727 191.038 13.8722 190.745 14.071C190.456 14.267 190.233 14.5227 190.076 14.8381C189.92 15.1534 189.842 15.4915 189.842 15.8523V16.4318C189.842 16.9261 189.927 17.3452 190.098 17.6889C190.271 18.0298 190.511 18.2898 190.818 18.4688C191.125 18.6449 191.481 18.733 191.887 18.733C192.152 18.733 192.39 18.696 192.603 18.6222C192.819 18.5455 193.005 18.4318 193.162 18.2812C193.318 18.1278 193.439 17.9375 193.524 17.7102L194.495 17.983C194.393 18.3125 194.221 18.6023 193.98 18.8523C193.738 19.0994 193.44 19.2926 193.085 19.4318C192.73 19.5682 192.331 19.6364 191.887 19.6364ZM200.764 14.4205L199.86 14.6761C199.804 14.5256 199.72 14.3793 199.609 14.2372C199.501 14.0923 199.353 13.973 199.166 13.8793C198.978 13.7855 198.738 13.7386 198.446 13.7386C198.045 13.7386 197.711 13.831 197.444 14.0156C197.18 14.1974 197.048 14.429 197.048 14.7102C197.048 14.9602 197.139 15.1577 197.321 15.3026C197.502 15.4474 197.787 15.5682 198.173 15.6648L199.145 15.9034C199.73 16.0455 200.166 16.2628 200.453 16.5554C200.74 16.8452 200.883 17.2187 200.883 17.6761C200.883 18.0511 200.775 18.3864 200.559 18.6818C200.346 18.9773 200.048 19.2102 199.664 19.3807C199.281 19.5511 198.835 19.6364 198.326 19.6364C197.659 19.6364 197.106 19.4915 196.669 19.2017C196.231 18.9119 195.954 18.4886 195.838 17.9318L196.792 17.6932C196.883 18.0455 197.055 18.3097 197.308 18.4858C197.564 18.6619 197.897 18.75 198.309 18.75C198.778 18.75 199.15 18.6506 199.426 18.4517C199.704 18.25 199.843 18.0085 199.843 17.7273C199.843 17.5 199.764 17.3097 199.605 17.1562C199.446 17 199.201 16.8835 198.872 16.8068L197.781 16.5511C197.181 16.4091 196.741 16.1889 196.46 15.8906C196.181 15.5895 196.042 15.2131 196.042 14.7614C196.042 14.392 196.146 14.0653 196.353 13.7812C196.564 13.4972 196.849 13.2741 197.21 13.1122C197.574 12.9503 197.985 12.8693 198.446 12.8693C199.093 12.8693 199.602 13.0114 199.971 13.2955C200.343 13.5795 200.608 13.9545 200.764 14.4205Z" fill="#666666"/>
</svg>
